<?xml version="1.0" standalone="no"?>
<!DOCTYPE svg PUBLIC "-//W3C//DTD SVG 20010904//EN"
 "http://www.w3.org/TR/2001/REC-SVG-20010904/DTD/svg10.dtd">
<svg version="1.0" xmlns="http://www.w3.org/2000/svg"
 width="360.000000pt" height="211.000000pt" viewBox="0 0 360.000000 211.000000"
 preserveAspectRatio="xMidYMid meet">

<g transform="translate(0.000000,211.000000) scale(0.100000,-0.100000)"
fill="#000000" stroke="none">
<path d="M2920 2096 c-142 -31 -246 -132 -265 -257 -12 -83 31 -194 99 -252
38 -32 93 -56 223 -98 159 -52 199 -71 223 -112 26 -42 25 -86 -3 -127 -37
-56 -79 -74 -183 -78 -109 -5 -197 9 -283 43 -77 32 -91 24 -91 -45 0 -70 24
-94 123 -126 61 -19 113 -27 199 -31 107 -5 124 -3 200 20 175 55 256 162 246
323 -4 59 -11 83 -34 120 -44 71 -104 106 -285 166 -173 56 -222 86 -238 144
-11 39 10 102 41 126 63 48 238 50 368 4 70 -25 76 -25 87 -9 18 23 16 84 -3
111 -49 70 -272 112 -424 78z"/>
<path d="M401 2074 c-80 -24 -128 -47 -143 -69 -10 -14 -10 -123 0 -129 5 -3
55 10 113 28 128 42 205 51 290 36 125 -22 160 -69 167 -224 l4 -99 -23 6
c-148 37 -344 34 -431 -6 -128 -58 -198 -161 -198 -291 0 -91 23 -156 75 -214
125 -139 378 -132 546 16 l46 41 16 -33 c19 -41 75 -106 91 -106 6 0 37 17 69
37 45 30 57 43 57 63 0 14 -4 30 -9 35 -5 6 -17 33 -27 60 -14 41 -18 101 -23
345 l-6 295 -28 57 c-32 65 -90 121 -156 151 -39 18 -69 22 -196 24 -136 2
-158 0 -234 -23z m299 -564 c142 -15 133 -8 128 -106 -4 -73 -8 -90 -34 -127
-47 -66 -119 -100 -224 -105 -73 -3 -90 0 -118 18 -68 43 -91 162 -46 239 20
33 74 67 130 80 52 12 55 12 164 1z"/>
<path d="M1147 2073 c-13 -12 -7 -49 28 -163 20 -63 47 -153 61 -200 14 -47
31 -103 39 -125 7 -22 23 -74 35 -115 12 -41 33 -109 45 -150 13 -41 35 -114
50 -162 14 -48 32 -94 41 -102 11 -12 37 -16 99 -16 103 0 103 0 140 155 14
61 41 173 60 250 18 77 46 192 60 255 15 63 31 121 34 128 7 13 56 -178 167
-653 14 -60 30 -115 36 -122 12 -14 174 -18 195 -5 15 9 27 45 193 578 72 234
128 428 124 438 -5 13 -21 16 -83 16 -48 0 -84 -5 -95 -13 -12 -9 -30 -58 -51
-143 -164 -639 -175 -678 -180 -672 -1 2 -44 179 -95 393 -50 215 -98 400
-106 413 -13 20 -23 22 -90 22 -41 0 -84 -5 -94 -10 -23 -12 -21 -3 -126 -454
-47 -198 -86 -361 -87 -363 -3 -2 -20 62 -127 487 -55 216 -85 319 -97 328
-18 13 -164 17 -176 5z"/>
</g>
</svg>
