<?xml version="1.0" standalone="no"?>
<!DOCTYPE svg PUBLIC "-//W3C//DTD SVG 20010904//EN"
 "http://www.w3.org/TR/2001/REC-SVG-20010904/DTD/svg10.dtd">
<svg version="1.0" xmlns="http://www.w3.org/2000/svg"
 width="360.000000pt" height="360.000000pt" viewBox="0 0 360.000000 360.000000"
 preserveAspectRatio="xMidYMid meet">

<g transform="translate(0.000000,360.000000) scale(0.100000,-0.100000)"
fill="#000000" stroke="none">
<path d="M1620 2780 l0 -150 165 0 166 0 -2 151 c0 83 -3 148 -6 145 -3 -3 -5
-57 -4 -121 1 -77 -2 -122 -10 -131 -9 -11 -8 -14 2 -14 9 0 10 -3 3 -10 -7
-7 -66 -10 -155 -8 l-144 3 -2 136 -1 135 61 -1 c34 0 103 2 152 5 79 6 72 7
-67 8 l-158 2 0 -150z"/>
<path d="M832 2433 l2 -128 3 123 4 122 154 0 155 0 0 -115 c0 -98 -3 -116
-17 -125 -17 -11 -17 -11 0 -6 10 3 17 0 17 -8 0 -11 -27 -14 -129 -15 -71 -1
-139 -4 -150 -6 -12 -2 -25 3 -31 13 -9 16 -9 16 -10 0 0 -10 3 -18 8 -19 4 0
78 -1 165 -2 l157 -2 0 148 0 147 -165 0 -165 0 2 -127z"/>
<path d="M1225 2413 l0 -148 112 0 c100 0 112 2 117 18 3 14 1 16 -8 8 -9 -7
-16 -7 -25 2 -10 9 -11 9 -6 -3 4 -13 -6 -14 -66 -12 -59 3 -75 8 -90 25 -21
26 -25 42 -6 31 9 -6 9 -4 -1 8 -11 14 -10 18 5 28 16 10 16 11 1 6 -16 -5
-18 3 -18 84 0 84 1 89 23 93 17 3 16 5 -8 6 l-30 1 0 -147z m28 -134 c-9 -9
-12 -7 -10 9 1 14 5 18 11 12 7 -7 6 -14 -1 -21z"/>
<path d="M1419 2551 l113 -6 5 -132 c4 -133 4 -133 -19 -134 -22 0 -22 -1 -3
-9 11 -5 23 -9 28 -9 4 -1 7 67 7 149 l0 150 -122 -2 -123 -2 114 -5z"/>
<path d="M1620 2410 c0 -155 3 -165 40 -139 12 9 11 10 -7 6 -23 -5 -23 -5
-23 133 l0 138 101 0 c55 0 103 3 107 6 3 3 -45 6 -106 6 l-112 0 0 -150z"/>
<path d="M1863 2553 c9 -2 25 -2 35 0 9 3 1 5 -18 5 -19 0 -27 -2 -17 -5z"/>
<path d="M1928 2553 c6 -2 12 -13 12 -24 0 -10 -6 -19 -12 -19 -10 0 -10 -2 0
-8 16 -11 15 -172 -2 -172 -7 0 -6 -3 2 -8 7 -5 10 -16 6 -26 -5 -13 -18 -16
-65 -15 -33 1 -62 -1 -66 -4 -3 -4 0 -7 8 -8 8 0 42 -1 76 -2 l61 -2 1 148 c2
135 0 147 -16 146 -11 0 -13 -3 -5 -6z"/>
<path d="M2668 2412 c-46 -73 -56 -93 -61 -123 -2 -13 -9 -37 -16 -53 -12 -29
-17 -193 -7 -204 6 -6 11 92 7 142 -2 16 2 26 7 22 6 -3 8 2 5 14 -3 11 -2 28
2 37 3 10 7 20 7 23 1 3 8 11 17 18 9 8 10 11 4 7 -17 -8 -16 -5 4 36 41 83
81 134 74 96 -1 -5 3 -6 8 -3 13 8 62 -15 55 -25 -3 -5 2 -9 11 -9 22 0 14 10
-37 47 l-44 31 -36 -56z"/>
<path d="M2806 2381 c-4 -6 -2 -11 3 -11 6 0 11 -5 11 -11 0 -5 -5 -7 -12 -3
-7 4 -8 3 -4 -4 4 -6 14 -8 23 -5 12 5 15 2 10 -9 -4 -12 -1 -14 14 -11 20 5
20 6 0 20 -11 7 -24 21 -29 30 -6 11 -11 12 -16 4z"/>
<path d="M930 2315 c0 -2 6 -8 13 -14 10 -8 14 -7 14 2 0 8 -6 14 -14 14 -7 0
-13 -1 -13 -2z"/>
<path d="M1706 2307 c3 -10 9 -15 12 -12 3 3 0 11 -7 18 -10 9 -11 8 -5 -6z"/>
<path d="M1741 2306 c-9 -11 -9 -15 1 -19 8 -4 7 -6 -4 -6 -22 -1 -24 -18 -3
-18 8 0 15 5 15 10 0 5 7 4 15 -3 9 -7 19 -10 22 -6 4 4 1 11 -6 15 -11 7 -11
10 0 15 8 3 3 3 -10 0 -19 -5 -23 -3 -18 10 8 20 3 21 -12 2z"/>
<path d="M2876 2306 c3 -8 13 -17 22 -21 13 -5 13 -2 -3 15 -21 24 -26 25 -19
6z"/>
<path d="M1320 2300 c0 -5 5 -10 11 -10 5 0 7 5 4 10 -3 6 -8 10 -11 10 -2 0
-4 -4 -4 -10z"/>
<path d="M1480 2300 c0 -5 5 -10 11 -10 5 0 7 5 4 10 -3 6 -8 10 -11 10 -2 0
-4 -4 -4 -10z"/>
<path d="M1358 2293 c7 -3 16 -2 19 1 4 3 -2 6 -13 5 -11 0 -14 -3 -6 -6z"/>
<path d="M1460 2272 c0 -5 7 -9 15 -9 8 0 15 4 15 9 0 4 -7 8 -15 8 -8 0 -15
-4 -15 -8z"/>
<path d="M1688 2273 c7 -3 16 -2 19 1 4 3 -2 6 -13 5 -11 0 -14 -3 -6 -6z"/>
<path d="M2910 2255 c17 -21 3 -39 -18 -23 -15 12 -16 11 -3 -5 10 -12 17 -14
26 -7 9 8 14 6 19 -6 4 -9 9 -14 12 -11 8 8 -25 67 -37 67 -8 0 -8 -5 1 -15z"/>
<path d="M2623 2212 c2 -12 6 -24 10 -28 3 -4 4 4 2 16 -6 30 -16 40 -12 12z"/>
<path d="M442 2053 c-1 -84 1 -153 6 -153 4 0 6 53 4 117 -4 186 -8 201 -10
36z"/>
<path d="M518 2192 c-111 -6 -57 -17 82 -17 77 0 139 4 137 8 -3 9 -125 14
-219 9z"/>
<path d="M750 2176 c0 -14 4 -26 8 -26 11 0 12 39 1 45 -5 4 -9 -5 -9 -19z"/>
<path d="M830 2048 c0 -137 6 -169 26 -136 4 7 3 8 -4 4 -9 -5 -12 29 -12 131
l0 139 43 -4 c23 -3 39 -1 34 4 -4 4 -25 8 -47 9 l-40 2 0 -149z"/>
<path d="M995 2189 l-50 -7 53 2 c28 0 54 -3 56 -9 3 -6 5 -6 5 1 1 11 63 10
81 -1 6 -4 10 -61 10 -131 0 -124 -2 -131 -35 -124 -5 1 -7 -2 -2 -6 4 -4 16
-8 27 -9 19 -2 20 5 20 144 l0 146 -58 0 c-31 0 -79 -3 -107 -6z"/>
<path d="M1226 2067 c1 -107 3 -131 15 -129 9 2 8 -3 -5 -17 -18 -19 -18 -20
2 -18 15 1 20 8 18 27 -1 14 -4 30 -8 35 -3 6 -6 59 -7 118 -2 83 1 107 10
101 8 -4 9 -3 5 4 -4 7 -13 12 -19 12 -9 0 -12 -36 -11 -133z"/>
<path d="M1335 2189 c-13 -5 2 -8 46 -8 37 -1 71 -6 78 -13 11 -10 13 -10 7 0
-4 6 -2 13 3 13 34 4 46 2 44 -9 -2 -7 3 -11 10 -9 9 1 12 -28 12 -123 l0
-125 -25 3 c-14 2 -21 0 -17 -4 4 -5 19 -9 33 -10 l25 -1 -2 147 -1 147 -41
-4 c-49 -4 -138 -3 -146 1 -3 2 -15 0 -26 -5z"/>
<path d="M1620 2046 c0 -82 3 -147 6 -143 3 3 6 65 5 138 0 72 2 136 5 141 3
5 15 1 27 -9 11 -10 17 -12 13 -5 -5 9 7 12 51 12 34 0 64 -5 72 -12 10 -11
11 -9 5 6 -6 15 -4 17 7 11 8 -4 11 -5 7 0 -4 4 -50 8 -103 9 l-95 1 0 -149z"/>
<path d="M1895 2190 l-30 -6 31 -5 c34 -6 54 -2 54 10 0 9 -14 9 -55 1z"/>
<path d="M2020 2195 c0 -5 -2 -74 -3 -151 l-2 -142 31 0 c17 0 37 4 45 9 11 8
10 10 -6 8 -58 -4 -56 -10 -53 129 2 104 6 127 18 128 8 1 23 2 33 3 10 0 15
6 12 11 -5 8 -11 7 -21 -1 -11 -9 -14 -9 -14 1 0 10 -3 10 -14 1 -11 -9 -15
-9 -19 1 -3 7 -6 9 -7 3z"/>
<path d="M2210 2189 l-55 -6 70 -3 c39 -1 77 -2 86 -1 13 1 15 -17 15 -129 -1
-79 -5 -130 -11 -131 -5 -1 -22 -1 -37 -1 -43 -1 -24 -14 22 -16 l40 -2 0 148
0 147 -38 0 c-20 0 -62 -3 -92 -6z"/>
<path d="M931 2174 c0 -11 3 -14 6 -6 3 7 2 16 -1 19 -3 4 -6 -2 -5 -13z"/>
<path d="M2120 2183 c8 -3 18 -11 22 -17 5 -7 8 -4 8 7 0 11 -7 17 -22 16 -16
0 -18 -2 -8 -6z"/>
<path d="M2944 2178 c1 -7 5 -19 9 -25 5 -7 6 -17 2 -22 -3 -5 0 -13 6 -17 9
-5 10 2 6 26 -4 18 -7 36 -7 41 0 5 -4 9 -9 9 -5 0 -8 -6 -7 -12z"/>
<path d="M2906 2172 c-3 -5 1 -9 9 -9 8 0 12 4 9 9 -3 4 -7 8 -9 8 -2 0 -6 -4
-9 -8z"/>
<path d="M1939 2118 c-4 -148 -3 -210 4 -215 4 -2 7 57 7 131 0 75 -2 136 -5
136 -3 0 -6 -24 -6 -52z"/>
<path d="M749 2118 c-7 -23 -4 -39 7 -49 10 -8 14 -8 14 0 0 6 -6 11 -12 11
-9 0 -8 4 2 10 11 7 11 10 2 10 -7 0 -10 5 -7 10 3 6 4 10 1 10 -3 0 -6 -1 -7
-2z"/>
<path d="M3000 2100 c-23 -7 -23 -8 -3 -9 12 -1 25 4 28 9 3 6 5 10 3 9 -2 -1
-14 -5 -28 -9z"/>
<path d="M3041 2106 c2 -2 29 -6 59 -8 30 -2 61 -7 68 -11 6 -5 12 -4 12 2 0
6 8 8 18 5 12 -4 13 -3 5 3 -13 9 -171 18 -162 9z"/>
<path d="M3222 2095 c6 -6 31 -13 56 -14 6 -1 11 -7 10 -13 -2 -7 3 -12 10
-10 6 1 12 -3 12 -9 0 -8 6 -7 17 2 9 8 14 9 10 3 -4 -7 5 -17 23 -24 32 -13
39 -39 18 -62 -7 -7 -14 -20 -16 -28 -2 -8 -10 -20 -17 -26 -8 -6 -12 -14 -8
-17 3 -4 -1 -7 -10 -7 -10 0 -14 -5 -11 -15 4 -8 1 -15 -6 -15 -6 0 -8 -4 -5
-10 6 -9 -8 -14 -28 -11 -5 1 -6 -3 -2 -8 3 -6 -4 -15 -16 -22 -19 -10 -21 -9
-16 5 9 22 -8 29 -24 9 -8 -9 -9 -14 -3 -10 7 4 14 0 18 -8 3 -9 -3 -19 -14
-25 -11 -6 -20 -8 -20 -4 0 4 -9 -1 -20 -11 -10 -9 -26 -15 -34 -12 -9 4 -18
2 -21 -4 -4 -5 -11 -6 -17 -3 -6 4 -8 2 -5 -3 4 -6 -4 -13 -18 -15 -14 -3 -25
-1 -25 3 0 5 5 9 12 9 6 0 8 3 4 7 -4 5 -13 1 -20 -8 -6 -9 -23 -16 -36 -15
-14 1 -34 -1 -46 -5 -11 -4 -28 -3 -37 2 -13 8 -15 6 -11 -6 7 -18 14 -18 48
-5 18 6 26 6 26 -1 0 -6 9 -8 20 -4 11 3 30 8 42 10 13 2 36 6 52 9 39 7 125
51 164 84 41 36 76 85 107 152 l26 54 -23 18 c-33 26 -102 57 -140 63 -18 3
-30 3 -26 0z"/>
<path d="M2603 2055 c0 -8 4 -12 9 -9 5 3 6 10 3 15 -9 13 -12 11 -12 -6z"/>
<path d="M756 2042 c-2 -4 -1 -14 5 -22 7 -12 9 -10 9 8 0 23 -5 28 -14 14z"/>
<path d="M2593 2022 c-12 -8 15 -101 39 -129 10 -12 9 -17 -5 -25 -10 -5 -15
-14 -11 -19 4 -6 14 -2 26 10 17 19 18 23 4 37 -9 8 -16 24 -16 34 0 10 -6 21
-12 23 -10 4 -10 6 0 6 10 1 9 5 -3 17 -9 9 -13 24 -10 35 7 21 6 22 -12 11z"/>
<path d="M3359 2007 c6 -8 7 -18 3 -22 -4 -5 -1 -5 6 -1 10 6 10 11 1 22 -6 8
-14 14 -16 14 -3 0 0 -6 6 -13z"/>
<path d="M752 1988 c2 -7 -4 -12 -13 -12 -9 1 -16 -5 -16 -12 0 -9 5 -10 18
-3 24 12 32 26 19 34 -6 4 -9 1 -8 -7z"/>
<path d="M745 1933 c2 -10 4 -21 4 -25 2 -20 17 -5 17 17 0 14 -5 25 -12 25
-7 0 -11 -8 -9 -17z"/>
<path d="M556 1908 c3 -4 9 -8 15 -8 5 0 9 4 9 8 0 5 -7 9 -15 9 -8 0 -12 -4
-9 -9z"/>
<path d="M653 1913 c15 -2 37 -2 50 0 12 2 0 4 -28 4 -27 0 -38 -2 -22 -4z"/>
<path d="M895 1910 c4 -6 155 -4 162 3 2 3 -34 5 -80 4 -47 -1 -84 -4 -82 -7z"/>
<path d="M1076 1908 c3 -4 9 -8 15 -8 5 0 9 4 9 8 0 5 -7 9 -15 9 -8 0 -12 -4
-9 -9z"/>
<path d="M1338 1913 c7 -3 16 -2 19 1 4 3 -2 6 -13 5 -11 0 -14 -3 -6 -6z"/>
<path d="M1380 1917 c10 -8 80 -16 80 -8 0 4 -19 8 -42 10 -23 1 -40 0 -38 -2z"/>
<path d="M1660 1906 c6 -6 18 -5 32 2 22 10 21 11 -9 9 -21 -1 -29 -5 -23 -11z"/>
<path d="M1738 1913 c7 -3 16 -2 19 1 4 3 -2 6 -13 5 -11 0 -14 -3 -6 -6z"/>
<path d="M1776 1909 c4 -8 30 -6 38 2 3 3 -5 5 -19 5 -13 0 -22 -3 -19 -7z"/>
<path d="M1853 1913 c15 -2 37 -2 50 0 12 2 0 4 -28 4 -27 0 -38 -2 -22 -4z"/>
<path d="M2173 1913 c15 -2 37 -2 50 0 12 2 0 4 -28 4 -27 0 -38 -2 -22 -4z"/>
<path d="M2535 1834 c-41 -11 -248 -14 -1193 -14 -628 0 -1141 -3 -1141 -7 1
-5 0 -10 -1 -13 -25 -66 -8 -309 32 -438 23 -76 107 -256 134 -289 11 -12 37
-45 59 -72 22 -27 46 -52 54 -56 11 -4 11 -3 2 9 -7 8 -9 21 -5 27 4 8 3 9 -5
5 -14 -9 -43 12 -36 25 3 4 14 6 25 4 12 -2 18 0 15 5 -6 9 -31 8 -41 -3 -8
-7 -33 23 -30 36 0 5 -7 13 -17 19 -15 8 -16 12 -6 24 7 8 8 14 3 12 -22 -7
-82 81 -70 101 4 6 0 14 -8 17 -9 3 -13 10 -10 15 3 5 1 9 -4 9 -5 0 -14 11
-20 25 -9 19 -9 25 0 25 7 0 5 7 -4 18 -19 21 -36 71 -32 95 1 9 -2 17 -7 17
-5 0 -9 12 -9 26 0 17 4 23 13 19 6 -4 4 0 -6 8 -10 9 -18 26 -17 39 1 13 1
25 0 28 -1 3 -3 22 -6 44 -3 35 -2 37 14 25 15 -13 16 -12 3 4 -7 9 -10 17 -6
17 4 0 3 6 -3 13 -12 14 -13 107 -1 122 4 6 7 15 6 20 -2 12 1007 16 1059 5
23 -5 34 -4 34 4 0 7 4 6 9 -3 5 -8 11 -9 15 -3 8 14 1069 13 1078 -2 6 -8 8
-7 8 1 0 9 17 12 51 11 28 0 55 4 62 11 6 6 21 11 33 11 13 0 26 5 29 10 8 12
3 12 -60 -6z"/>
<path d="M220 1751 c0 -6 4 -13 10 -16 6 -3 7 1 4 9 -7 18 -14 21 -14 7z"/>
<path d="M2887 1736 c-4 -10 -3 -15 3 -11 6 3 10 -3 10 -14 0 -12 -5 -21 -11
-21 -5 0 -7 -5 -4 -10 3 -6 -3 -23 -14 -39 -12 -16 -21 -33 -21 -37 0 -4 -7
-16 -17 -26 -13 -15 -13 -18 -2 -18 8 0 30 33 50 74 30 63 34 78 24 96 -10 19
-13 20 -18 6z"/>
<path d="M2808 1548 c17 -17 -6 -65 -34 -72 -19 -5 -24 -11 -19 -25 3 -11 0
-23 -6 -27 -7 -4 -9 -3 -5 4 3 6 1 14 -5 18 -7 4 -9 3 -5 -4 3 -6 2 -13 -2
-16 -5 -3 -7 -17 -4 -31 3 -18 0 -25 -12 -25 -9 0 -16 -5 -16 -10 0 -6 -11
-22 -25 -36 -13 -13 -24 -25 -24 -27 0 -1 -3 -10 -7 -20 -4 -12 -10 -15 -19
-7 -8 7 -12 5 -12 -5 0 -8 4 -12 9 -9 4 3 8 2 8 -2 0 -11 -43 -46 -75 -60 -23
-10 -25 -13 -10 -14 18 0 17 -2 -5 -17 -14 -10 -29 -17 -33 -15 -5 1 -6 -2 -3
-7 3 -5 -6 -21 -21 -35 -19 -19 -28 -23 -34 -14 -4 6 -5 16 -2 22 3 5 1 6 -5
2 -6 -4 -8 -14 -5 -23 4 -10 2 -14 -5 -9 -6 3 -14 1 -18 -5 -4 -7 -3 -9 4 -5
6 3 13 2 17 -4 6 -9 -7 -14 -28 -11 -4 0 -6 -5 -5 -11 2 -7 -3 -12 -9 -10 -7
1 -13 -5 -13 -13 0 -8 -3 -15 -7 -16 -31 -3 -47 -11 -79 -43 -20 -19 -41 -33
-45 -30 -5 3 -9 0 -9 -6 0 -7 -9 -9 -22 -6 -13 3 -17 3 -10 0 8 -4 -12 -19
-50 -39 -34 -18 -66 -31 -70 -29 -5 3 -8 0 -8 -6 0 -6 -4 -8 -10 -5 -5 3 -10
2 -10 -4 0 -6 -7 -8 -15 -5 -8 4 -15 1 -15 -4 0 -14 -107 -45 -122 -36 -6 4
-8 3 -5 -3 8 -12 -20 -26 -34 -17 -5 3 -9 1 -9 -5 0 -5 -12 -8 -26 -5 -16 3
-23 1 -19 -6 3 -5 1 -10 -4 -10 -6 0 -11 5 -11 12 0 6 -6 4 -13 -7 -8 -10 -19
-15 -25 -11 -6 3 -13 2 -17 -3 -3 -6 -26 -13 -51 -17 -25 -3 -43 -9 -40 -11
17 -17 386 88 386 109 0 5 4 7 8 4 10 -6 225 102 230 115 2 5 8 9 14 9 11 0
82 49 135 92 117 96 316 320 316 355 0 7 4 13 8 13 3 0 14 11 23 25 15 23 15
24 -1 18 -11 -4 -14 -3 -9 5 4 7 14 12 21 12 8 0 23 18 33 39 19 39 19 39 -1
45 -14 3 -17 2 -9 -6z"/>
<path d="M2726 1504 c-3 -9 1 -11 11 -7 11 4 14 2 9 -5 -4 -7 -2 -12 3 -12 6
0 11 8 11 18 0 21 -27 25 -34 6z"/>
<path d="M300 1350 c-9 -6 -10 -10 -3 -10 6 0 15 5 18 10 8 12 4 12 -15 0z"/>
<path d="M305 1319 c-4 -6 -5 -12 -2 -15 2 -3 7 2 10 11 7 17 1 20 -8 4z"/>
<path d="M299 1273 c-13 -16 -12 -17 4 -4 16 13 21 21 13 21 -2 0 -10 -8 -17
-17z"/>
<path d="M2560 1241 c0 -6 4 -13 10 -16 6 -3 7 1 4 9 -7 18 -14 21 -14 7z"/>
<path d="M504 937 c3 -47 203 -170 339 -207 174 -48 302 -67 311 -46 3 7 5 6
5 -1 1 -9 20 -13 63 -13 73 0 74 9 0 11 -28 1 -49 5 -47 9 3 4 -2 13 -11 20
-12 10 -17 11 -27 1 -9 -10 -8 -11 7 -5 13 5 17 4 12 -4 -4 -7 -18 -12 -32
-12 -17 0 -23 4 -18 12 5 7 3 8 -7 2 -8 -4 -22 -10 -33 -11 -16 -3 -17 -1 -5
14 10 12 10 15 1 9 -24 -15 -65 -17 -73 -4 -6 8 -9 9 -9 2 0 -8 -11 -8 -37 2
-21 7 -47 13 -59 14 -12 0 -26 10 -33 23 -6 12 -9 14 -7 5 3 -12 1 -15 -9 -11
-8 3 -12 10 -8 17 4 6 0 6 -9 -2 -13 -11 -16 -10 -14 4 0 11 -8 18 -24 20 -18
3 -21 2 -10 -5 8 -5 19 -7 25 -4 5 3 5 0 -2 -7 -9 -10 -19 -8 -47 10 -20 12
-36 19 -36 15 0 -4 -12 3 -26 14 -15 12 -32 21 -39 21 -7 0 -12 8 -10 18 3 22
-4 34 -16 26 -6 -4 -6 -11 2 -20 17 -20 -3 -17 -23 4 -28 29 -52 47 -60 45 -4
-2 -12 6 -18 17 -11 21 -1 27 16 10 7 -7 11 -6 11 4 0 8 -4 13 -9 10 -4 -3 -8
-1 -8 4 0 5 -6 9 -14 9 -7 0 -13 -9 -12 -20z"/>
<path d="M2182 944 c-7 -8 -8 -14 -3 -14 10 0 25 19 20 25 -2 1 -10 -3 -17
-11z"/>
<path d="M1840 790 c-9 -6 -10 -10 -3 -10 6 0 15 5 18 10 8 12 4 12 -15 0z"/>
<path d="M1386 705 c18 -13 18 -14 1 -15 -10 0 -16 -4 -12 -10 3 -5 11 -7 18
-5 7 2 48 6 92 9 44 4 89 8 100 10 11 3 28 5 38 5 10 1 16 5 12 10 -3 6 -15 7
-28 4 -12 -2 -35 -7 -52 -9 -16 -2 -45 -5 -62 -7 -20 -3 -33 0 -33 7 0 6 -4 5
-9 -3 -8 -12 -12 -12 -25 -2 -9 8 -16 10 -16 5 0 -4 -5 -3 -12 4 -7 7 -16 12
-22 12 -5 0 -1 -7 10 -15z"/>
<path d="M1310 680 c-22 -7 -20 -8 13 -7 20 0 37 4 37 9 0 9 -15 9 -50 -2z"/>
</g>
</svg>
