<?xml version="1.0" standalone="no"?>
<!DOCTYPE svg PUBLIC "-//W3C//DTD SVG 20010904//EN"
 "http://www.w3.org/TR/2001/REC-SVG-20010904/DTD/svg10.dtd">
<svg version="1.0" xmlns="http://www.w3.org/2000/svg"
 width="603.000000pt" height="414.000000pt" viewBox="0 0 603.000000 414.000000"
 preserveAspectRatio="xMidYMid meet">

<g transform="translate(0.000000,414.000000) scale(0.100000,-0.100000)"
fill="#000000" stroke="none">
<path d="M2824 3315 c-255 -47 -455 -149 -635 -322 -131 -127 -223 -264 -287
-430 -35 -91 -39 -112 -19 -95 26 22 153 80 217 100 56 17 103 25 225 37 11 1
60 -2 109 -6 l89 -8 37 32 c132 120 279 177 458 177 104 0 209 -23 285 -62 57
-28 150 -90 164 -108 10 -13 11 -13 10 0 -4 25 -18 41 -30 33 -7 -4 -6 0 2 10
14 18 36 24 26 7 -3 -5 -3 -16 2 -22 4 -7 8 -19 10 -27 1 -8 9 -21 19 -30 13
-13 15 -13 8 -1 -7 13 -6 13 9 1 9 -7 17 -24 17 -37 0 -13 5 -25 10 -25 6 -1
15 -3 20 -4 6 -1 13 -3 16 -4 4 0 1 -8 -6 -16 -10 -12 -9 -15 4 -15 10 0 15
-4 11 -9 -3 -5 1 -15 8 -23 15 -15 27 -42 33 -78 3 -13 9 -29 15 -36 5 -6 7
-14 4 -18 -3 -3 0 -2 7 3 8 8 8 14 0 24 -9 10 -9 14 1 14 8 0 13 -13 13 -33 0
-18 -5 -30 -10 -26 -6 3 -6 -3 -2 -14 8 -19 14 -56 19 -129 2 -24 8 -39 15
-38 6 2 9 -4 5 -13 -4 -12 -8 -12 -13 -4 -5 7 -7 0 -7 -17 1 -23 7 -29 26 -31
13 -1 31 4 39 10 13 11 14 11 8 0 -9 -14 27 -31 61 -27 12 1 20 -2 17 -6 -3
-5 -1 -9 5 -9 5 0 22 -11 37 -25 14 -13 31 -22 36 -19 4 3 7 2 6 -3 -3 -9 36
-63 46 -63 4 0 6 6 4 13 -2 6 2 12 7 12 5 0 8 -6 7 -14 -2 -7 0 -11 5 -8 5 3
9 -3 9 -14 0 -18 -2 -19 -12 -4 -7 9 -15 12 -18 6 -4 -5 4 -17 16 -26 13 -8
21 -18 20 -20 -4 -6 12 -100 18 -107 6 -8 5 -68 0 -68 -7 0 -25 -77 -21 -92 0
-5 -4 -8 -10 -8 -6 0 -9 -7 -5 -15 3 -10 -11 -31 -39 -58 -30 -29 -41 -47 -34
-54 6 -6 3 -18 -11 -34 l-21 -24 17 27 c9 16 12 28 6 28 -6 0 -14 -5 -17 -10
-4 -6 -11 -8 -16 -4 -6 3 -9 -2 -7 -11 2 -11 -4 -19 -15 -20 -9 -2 -15 1 -11
6 3 5 0 9 -6 9 -6 0 -13 -6 -15 -13 -3 -6 -22 -13 -42 -14 -19 -1 -41 -7 -47
-14 -8 -9 -8 -10 2 -5 6 4 12 2 12 -3 0 -6 -7 -11 -15 -11 -8 0 -15 4 -15 9 0
5 -157 9 -350 9 l-349 1 -3 -259 c-2 -143 0 -260 5 -260 4 0 7 5 7 10 0 6 5
10 11 10 5 0 8 -4 5 -9 -5 -8 727 -8 769 0 11 2 24 10 28 17 4 6 13 12 20 12
7 0 6 -4 -3 -10 -12 -8 -9 -10 12 -10 15 0 34 8 44 17 10 10 19 17 21 16 2 -2
6 -3 11 -2 4 1 14 2 22 3 8 2 23 3 34 4 12 1 16 7 12 18 -5 13 -4 14 7 6 8 -7
17 -9 20 -6 3 4 -3 14 -15 24 -21 17 -21 17 8 15 16 -2 37 -6 47 -10 10 -4 17
-3 17 4 0 5 10 15 21 22 17 9 20 8 14 -3 -5 -7 4 -2 18 11 15 13 24 28 21 32
-3 5 2 6 11 3 19 -7 57 24 48 39 -4 6 -1 7 6 3 14 -9 53 22 45 35 -3 5 1 9 9
9 8 0 21 8 28 17 12 14 12 16 -1 9 -8 -5 -1 4 15 19 17 14 23 24 14 22 -9 -3
-16 0 -16 7 0 8 10 11 25 8 17 -3 23 -1 18 7 -4 6 -2 11 4 11 6 0 8 5 5 10 -3
6 0 10 8 10 21 0 38 44 24 59 -9 9 -8 11 3 7 10 -4 21 5 32 24 10 18 12 28 5
24 -6 -4 -3 2 7 14 11 12 15 22 10 22 -5 0 -4 4 1 8 21 15 34 59 22 72 -9 9
-9 11 -1 7 7 -4 15 0 18 9 8 22 8 22 -11 27 -12 3 -10 5 7 6 19 1 22 3 10 10
-8 6 -17 8 -21 5 -4 -2 -5 6 -1 18 5 21 6 21 13 2 6 -17 8 -17 17 8 6 15 9 36
7 47 -2 11 1 23 6 27 11 7 9 74 -3 74 -4 0 -8 5 -8 11 0 5 4 7 10 4 7 -4 7 3
0 20 -13 33 -13 38 1 30 11 -7 3 59 -10 80 -3 6 -6 25 -7 43 -1 18 -9 41 -18
51 -9 10 -16 22 -16 27 0 5 5 2 10 -6 5 -8 10 -10 10 -4 0 6 -3 14 -7 18 -4 3
-8 16 -10 28 -2 12 -8 25 -14 29 -6 3 -10 9 -10 13 5 33 -10 35 -40 4 -21 -23
-21 -23 -10 -1 6 12 16 23 23 25 9 3 9 12 -1 36 -7 18 -18 32 -23 32 -5 0 -6
5 -3 11 12 18 -25 49 -55 45 -30 -3 -35 14 -10 37 7 6 10 7 7 2 -8 -15 8 -40
17 -27 8 13 -34 62 -55 65 -10 2 -24 9 -33 16 -11 9 -16 10 -16 2 0 -6 -5 -11
-11 -11 -8 0 -8 4 0 14 9 10 9 16 1 21 -8 5 -8 10 0 20 13 15 -17 25 -58 20
-27 -4 -27 -4 3 10 17 8 24 14 18 15 -16 0 -53 36 -53 51 0 5 -4 7 -10 4 -5
-3 -10 -1 -10 4 0 6 4 11 10 11 5 0 2 16 -7 36 -13 27 -19 31 -23 19 -5 -14
-8 -12 -18 9 -9 20 -8 24 1 20 7 -2 13 4 14 16 1 11 -3 20 -8 20 -6 0 -7 -4
-4 -10 10 -16 -1 -11 -16 7 -12 14 -12 15 0 9 25 -15 0 37 -31 66 -34 32 -38
33 -38 16 0 -7 13 -22 30 -33 27 -18 25 -35 -5 -35 -5 0 -4 4 3 9 10 6 7 12
-12 25 -31 19 -34 66 -4 58 9 -2 20 -13 23 -23 4 -10 10 -19 15 -19 4 0 3 11
-3 25 -7 14 -18 25 -25 25 -9 0 -11 7 -7 22 6 16 4 20 -8 15 -11 -4 -14 -2
-10 9 3 7 -1 14 -8 14 -7 0 -10 3 -6 6 3 4 -6 23 -21 43 -14 20 -28 38 -29 40
-2 3 -10 -4 -18 -15 -13 -17 -14 -16 -5 14 5 20 5 30 -1 27 -5 -4 -9 -1 -9 5
0 6 -11 22 -24 37 -25 27 -49 24 -39 -5 9 -25 -2 -12 -26 31 -27 49 -27 54 4
20 13 -15 25 -23 25 -17 0 15 -102 108 -171 154 -203 139 -428 207 -680 208
-62 0 -146 -6 -185 -13z m948 -337 c-7 -7 -12 -8 -12 -2 0 6 3 14 7 17 3 4 9
5 12 2 2 -3 -1 -11 -7 -17z m38 -6 c0 -4 -9 -13 -21 -20 -19 -12 -19 -11 -9 8
10 19 30 28 30 12z m-65 -22 c-3 -5 -12 -10 -18 -10 -7 0 -6 4 3 10 19 12 23
12 15 0z m160 -49 c-6 -5 -25 10 -25 20 0 5 6 4 14 -3 8 -7 12 -15 11 -17z
m-190 9 c-3 -5 -14 -10 -23 -10 -15 0 -15 2 -2 10 20 13 33 13 25 0z m169 -26
c5 -14 4 -15 -9 -4 -17 14 -19 20 -6 20 5 0 12 -7 15 -16z m-30 -10 c3 -8 2
-12 -4 -9 -6 3 -10 10 -10 16 0 14 7 11 14 -7z m-189 -4 c-3 -5 -12 -10 -18
-10 -7 0 -6 4 3 10 19 12 23 12 15 0z m65 6 c0 -3 -4 -8 -10 -11 -5 -3 -10 -1
-10 4 0 6 5 11 10 11 6 0 10 -2 10 -4z m-60 -36 c0 -5 -2 -10 -4 -10 -3 0 -8
5 -11 10 -3 6 -1 10 4 10 6 0 11 -4 11 -10z m295 0 c3 -5 1 -10 -4 -10 -6 0
-11 5 -11 10 0 6 2 10 4 10 3 0 8 -4 11 -10z m-335 -10 c0 -5 -5 -10 -11 -10
-5 0 -7 5 -4 10 3 6 8 10 11 10 2 0 4 -4 4 -10z m309 -45 c0 -5 -4 -3 -9 5 -5
8 -9 22 -9 30 0 16 17 -16 18 -35z m31 25 c-19 -13 -30 -13 -30 0 0 6 10 10
23 10 18 0 19 -2 7 -10z m-385 -20 c-3 -5 -12 -10 -18 -10 -7 0 -6 4 3 10 19
12 23 12 15 0z m395 0 c-8 -5 -19 -10 -25 -10 -5 0 -3 5 5 10 8 5 20 10 25 10
6 0 3 -5 -5 -10z m-380 -24 c0 -3 -4 -8 -10 -11 -5 -3 -10 -1 -10 4 0 6 5 11
10 11 6 0 10 -2 10 -4z m-50 -16 c0 -5 -5 -10 -11 -10 -5 0 -7 5 -4 10 3 6 8
10 11 10 2 0 4 -4 4 -10z m40 -14 c0 -3 -4 -8 -10 -11 -5 -3 -10 -1 -10 4 0 6
5 11 10 11 6 0 10 -2 10 -4z m-85 -26 c-3 -5 -12 -10 -18 -10 -7 0 -6 4 3 10
19 12 23 12 15 0z m6 -62 c-10 -11 -11 -10 -6 5 4 10 2 17 -4 17 -6 0 -11 5
-11 12 0 8 6 6 17 -5 14 -14 15 -19 4 -29z m67 -50 c5 -27 -15 -29 -31 -5 -14
22 -14 23 6 22 12 -1 23 -9 25 -17z m18 -32 c0 -14 -5 -21 -9 -17 -4 4 -5 15
-1 24 9 24 12 21 10 -7z m502 -47 c-3 -8 -7 -3 -11 10 -4 17 -3 21 5 13 5 -5
8 -16 6 -23z m-455 -74 c-3 -9 -8 -14 -10 -11 -3 3 -2 9 2 15 9 16 15 13 8 -4z
m30 -5 c-3 -11 -9 -20 -15 -20 -5 0 -4 9 2 20 6 11 12 20 14 20 2 0 2 -9 -1
-20z m502 -20 c-3 -5 -1 -10 6 -10 7 0 10 -3 6 -6 -9 -9 -28 6 -22 17 4 5 8 9
11 9 3 0 2 -4 -1 -10z m240 -281 c-4 -5 -1 -9 4 -9 15 0 14 -17 -2 -23 -8 -3
-12 5 -12 24 -1 15 3 25 7 23 5 -3 6 -10 3 -15z m-670 -15 c-9 -7 -13 -18 -9
-28 4 -11 1 -16 -11 -16 -12 0 -15 5 -10 18 4 9 8 22 8 27 0 6 9 11 19 11 17
0 18 -2 3 -12z m171 -79 c-4 -24 -22 -39 -31 -24 -5 7 -4 10 3 5 6 -3 13 -2
17 4 3 5 0 10 -7 10 -9 0 -9 3 2 10 19 12 19 13 16 -5z m579 -95 c3 -5 1 -10
-4 -10 -6 0 -11 5 -11 10 0 6 2 10 4 10 3 0 8 -4 11 -10z m13 -145 c-3 -3 -9
2 -12 12 -6 14 -5 15 5 6 7 -7 10 -15 7 -18z m-453 5 c-3 -5 -14 -10 -23 -9
-14 0 -13 2 3 9 27 11 27 11 20 0z m12 -42 c-3 -8 -6 -5 -6 6 -1 11 2 17 5 13
3 -3 4 -12 1 -19z m-17 -51 c-8 -9 -9 -7 -4 7 5 13 4 17 -4 12 -8 -5 -10 -2
-5 10 6 15 7 15 16 -1 6 -11 5 -21 -3 -28z m445 3 c3 -5 1 -10 -4 -10 -6 0
-11 5 -11 10 0 6 2 10 4 10 3 0 8 -4 11 -10z m-419 -18 c0 -11 -8 -19 -19 -19
-18 -2 -18 -1 -2 18 22 23 21 23 21 1z m453 -27 c0 -5 -4 -3 -9 5 -5 8 -9 22
-9 30 0 16 17 -16 18 -35z m-22 -62 c-3 -10 -5 -4 -5 12 0 17 2 24 5 18 2 -7
2 -21 0 -30z m-512 -111 c-3 -3 -11 0 -18 7 -9 10 -8 11 6 5 10 -3 15 -9 12
-12z m-220 -112 c-3 -5 -12 -10 -18 -10 -7 0 -6 4 3 10 19 12 23 12 15 0z
m654 -24 c-3 -3 -11 5 -18 17 -13 21 -12 21 5 5 10 -10 16 -20 13 -22z m-1385
13 c-4 -8 7 -10 39 -8 25 2 43 0 40 -4 -6 -10 -103 -6 -103 4 0 4 6 10 13 12
18 8 19 8 11 -4z m193 -5 c-3 -3 -12 -4 -19 -1 -8 3 -5 6 6 6 11 1 17 -2 13
-5z m266 -1 c-13 -2 -33 -2 -45 0 -13 2 -3 4 22 4 25 0 35 -2 23 -4z m189 0
c-10 -4 -10 -8 0 -21 12 -15 11 -16 -4 -3 -19 14 -15 32 5 30 8 0 8 -2 -1 -6z
m63 -13 c3 -6 -1 -7 -9 -4 -18 7 -21 14 -7 14 6 0 13 -4 16 -10z m-482 -7 c-7
-2 -19 -2 -25 0 -7 3 -2 5 12 5 14 0 19 -2 13 -5z m230 0 c-13 -2 -33 -2 -45
0 -13 2 -3 4 22 4 25 0 35 -2 23 -4z m-471 -150 c-4 -273 -8 -299 -10 -75 -1
122 1 222 6 222 4 0 6 -66 4 -147z m1313 37 c3 -6 -1 -7 -9 -4 -18 7 -21 14
-7 14 6 0 13 -4 16 -10z m-78 -66 c-3 -3 -12 -4 -19 -1 -8 3 -5 6 6 6 11 1 17
-2 13 -5z m26 -7 c3 -7 -3 -13 -14 -14 -15 -1 -16 1 -6 12 15 18 14 18 20 2z
m-105 -103 c-4 -3 -12 5 -18 18 -12 22 -12 22 6 6 10 -10 15 -20 12 -24z
m-1121 -130 c-3 -3 -12 -4 -19 -1 -8 3 -5 6 6 6 11 1 17 -2 13 -5z m223 -4
c-8 -5 -19 -10 -25 -10 -5 0 -3 5 5 10 8 5 20 10 25 10 6 0 3 -5 -5 -10z m133
-7 c-7 -2 -19 -2 -25 0 -7 3 -2 5 12 5 14 0 19 -2 13 -5z m397 -3 c-8 -5 -19
-10 -25 -10 -5 0 -3 5 5 10 8 5 20 10 25 10 6 0 3 -5 -5 -10z m-370 -10 c-8
-5 -19 -10 -25 -10 -5 0 -3 5 5 10 8 5 20 10 25 10 6 0 3 -5 -5 -10z m310 0
c0 -5 -5 -10 -11 -10 -5 0 -7 5 -4 10 3 6 8 10 11 10 2 0 4 -4 4 -10z m-505
-10 c3 -6 -1 -7 -9 -4 -18 7 -21 14 -7 14 6 0 13 -4 16 -10z m402 4 c-3 -3
-12 -4 -19 -1 -8 3 -5 6 6 6 11 1 17 -2 13 -5z m73 2 c0 -2 -11 -6 -25 -8 -14
-3 -25 -1 -25 3 0 5 11 9 25 9 14 0 25 -2 25 -4z"/>
<path d="M3561 2594 c0 -11 3 -14 6 -6 3 7 2 16 -1 19 -3 4 -6 -2 -5 -13z"/>
<path d="M4271 2335 c13 -13 26 -20 28 -14 1 6 -5 17 -15 24 -31 23 -38 17
-13 -10z"/>
<path d="M4042 976 c7 -8 17 -12 22 -9 4 3 2 9 -5 14 -22 13 -31 11 -17 -5z"/>
<path d="M2853 883 c9 -2 23 -2 30 0 6 3 -1 5 -18 5 -16 0 -22 -2 -12 -5z"/>
</g>
</svg>
