<?xml version="1.0" encoding="UTF-8"?>
<!-- Generator: visioncortex VTracer 0.6.3 -->
<svg version="1.1" xmlns="http://www.w3.org/2000/svg" width="1280" height="1280">
<path d="M0 0 C0.93 -0 1.85 -0 2.8 -0.01 C5.87 -0.01 8.94 -0.01 12 -0 C14.14 -0 16.27 -0.01 18.4 -0.01 C22.87 -0.01 27.34 -0.01 31.82 -0 C37.54 0 43.26 0 48.99 -0 C53.39 -0.01 57.8 -0.01 62.2 -0 C64.31 -0 66.42 -0 68.53 -0.01 C71.49 -0.01 74.44 -0.01 77.4 0 C78.27 -0 79.13 -0 80.03 -0.01 C84.77 0.01 89.26 0.38 93.96 1.13 C97.2 1.16 100.43 1.07 103.68 0.97 C107.36 1.15 110.42 2.11 113.96 3.13 C116.39 3.36 118.83 3.53 121.27 3.63 C126.49 3.92 131.41 4.45 136.5 5.59 C139.31 6.21 142.12 6.67 144.96 7.13 C160.86 9.75 160.86 9.75 165.96 12.13 C166.29 11.47 166.62 10.81 166.96 10.13 C166.96 10.79 166.96 11.45 166.96 12.13 C167.83 12.19 167.83 12.19 168.72 12.24 C175.72 12.8 182.19 14.34 188.96 16.13 C190.29 16.46 191.63 16.79 192.96 17.11 C204.79 19.99 204.79 19.99 210.27 21.88 C213.78 23.29 213.78 23.29 216.96 23.13 C218.39 23.55 219.8 24.01 221.21 24.5 C223.87 25.43 226.48 26.27 229.21 27 C233.85 28.4 238.28 30.19 242.77 32.01 C245.86 33.09 248.74 33.61 251.96 34.13 C254.06 34.93 254.06 34.93 256.02 35.88 C263.2 39.22 270.64 41.93 278.08 44.63 C282.2 46.16 286.15 48.02 290.13 49.86 C293.69 51.46 297.31 52.86 300.96 54.23 C302.96 55.13 302.96 55.13 304.96 57.13 C307.14 57.95 309.34 58.59 311.57 59.25 C314.28 60.25 316.49 61.62 318.96 63.13 C321.45 64.4 323.95 65.65 326.46 66.88 C332.83 70.03 339.08 73.32 345.29 76.78 C347.81 78.19 347.81 78.19 350.19 78.63 C351.96 79.13 351.96 79.13 353.96 82.13 C356.42 83.48 356.42 83.48 359.27 84.63 C369.35 88.92 369.35 88.92 370.96 92.13 C372.69 92.59 372.69 92.59 374.46 93.07 C376.19 93.59 376.19 93.59 377.96 94.13 C378.29 95.12 378.62 96.11 378.96 97.13 C381.8 98.75 384.66 100.01 387.71 101.19 C389.96 102.13 389.96 102.13 391.96 104.13 C399.23 110.81 399.23 110.81 407.96 114.13 C408.29 115.12 408.62 116.11 408.96 117.13 C411.02 118.51 411.02 118.51 413.46 119.69 C417.86 121.93 417.86 121.93 418.96 124.13 C419.95 124.46 420.94 124.79 421.96 125.13 C421.96 125.79 421.96 126.45 421.96 127.13 C422.86 127.53 422.86 127.53 423.77 127.94 C425.97 129.14 427.2 130.38 428.96 132.13 C431.19 133.56 433.46 134.87 435.8 136.1 C440.86 138.83 440.86 138.83 441.96 142.13 C444.93 144.32 447.45 145.96 450.96 147.13 C450.96 148.12 450.96 149.11 450.96 150.13 C451.62 150.13 452.28 150.13 452.96 150.13 C452.96 150.79 452.96 151.45 452.96 152.13 C453.95 152.13 454.94 152.13 455.96 152.13 C455.96 152.79 455.96 153.45 455.96 154.13 C456.62 154.13 457.28 154.13 457.96 154.13 C458.29 155.12 458.62 156.11 458.96 157.13 C461.33 158.74 461.33 158.74 463.96 160.13 C464.95 160.79 465.94 161.45 466.96 162.13 C466.96 162.79 466.96 163.45 466.96 164.13 C467.7 164.39 468.45 164.64 469.21 164.91 C472.08 166.19 473.66 167.46 475.86 169.67 C476.59 170.4 477.31 171.12 478.06 171.87 C478.83 172.65 479.61 173.44 480.4 174.24 C481.2 175.05 482.01 175.86 482.84 176.69 C484.54 178.39 486.23 180.1 487.92 181.81 C490.51 184.43 493.1 187.03 495.7 189.64 C497.35 191.3 499 192.96 500.65 194.62 C501.42 195.39 502.2 196.17 502.99 196.97 C506.53 200.56 509.91 204.11 512.96 208.13 C514.49 209.89 516.04 211.64 517.59 213.38 C519.02 215.21 519.99 217.03 520.96 219.13 C521.62 219.13 522.28 219.13 522.96 219.13 C522.96 220.12 522.96 221.11 522.96 222.13 C523.62 222.13 524.28 222.13 524.96 222.13 C524.96 222.79 524.96 223.45 524.96 224.13 C525.95 224.46 526.94 224.79 527.96 225.13 C529.32 226.44 529.32 226.44 530.71 228.13 C531.49 229.07 531.49 229.07 532.28 230.03 C534.65 232.99 536.98 235.99 539.29 238.99 C540.72 240.83 542.19 242.61 543.71 244.38 C545.96 247.13 545.96 247.13 547.58 249.88 C548.91 252.4 548.91 252.4 551.96 254.13 C551.96 255.12 551.96 256.11 551.96 257.13 C552.62 257.13 553.28 257.13 553.96 257.13 C556.96 261.51 556.96 261.51 556.96 264.13 C557.62 264.13 558.28 264.13 558.96 264.13 C560 265.53 560 265.53 561.15 267.5 C563.72 271.84 566.62 275.87 569.6 279.93 C570.96 282.13 570.96 282.13 570.96 285.13 C571.95 285.46 572.94 285.79 573.96 286.13 C575.17 287.7 575.17 287.7 576.33 289.69 C576.97 290.77 576.97 290.77 577.63 291.88 C578.07 292.62 578.51 293.36 578.96 294.13 C579.83 295.51 580.7 296.88 581.58 298.25 C583.59 301.45 585.27 304.75 586.96 308.13 C587.62 308.79 588.28 309.45 588.96 310.13 C589.72 311.4 590.44 312.7 591.15 314 C593.08 317.55 595.08 321.04 597.15 324.5 C605.06 338.02 612.02 352.09 618.96 366.13 C619.56 367.25 619.56 367.25 620.17 368.4 C621.22 370.7 621.1 372.64 620.96 375.13 C621.95 375.46 622.94 375.79 623.96 376.13 C624.35 377.45 624.67 378.79 624.96 380.13 C625.94 382.14 626.94 384.14 627.96 386.13 C629.94 390.32 631.38 393.46 630.96 398.13 C631.62 398.13 632.28 398.13 632.96 398.13 C634.85 402.42 636.47 406.68 637.96 411.13 C638.45 412.28 638.95 413.44 639.46 414.63 C642.23 421.1 644.01 427.81 645.86 434.59 C646.89 438.15 646.89 438.15 648.43 441.52 C650.16 445.62 651.33 449.71 652.46 454 C653.94 459.49 655.49 464.9 657.34 470.27 C658.17 472.78 658.81 475.33 659.42 477.9 C659.83 479.6 660.27 481.29 660.71 482.98 C662.13 488.4 663.3 493.59 663.65 499.19 C664.01 501.47 664.91 503.08 665.96 505.13 C667.61 511.19 668.24 517.34 668.61 523.59 C668.99 526.37 669.91 528.53 670.96 531.13 C671.36 533.14 671.72 535.16 672.02 537.19 C672.6 541.12 672.6 541.12 673.45 544.99 C674.25 548.37 674.58 551.81 674.96 555.25 C675.05 556.04 675.13 556.83 675.23 557.64 C675.91 564.03 676.32 570.42 676.53 576.85 C676.68 580.47 677.06 583.77 677.96 587.28 C679.08 592.18 679.24 596.83 679.22 601.84 C679.22 602.76 679.22 603.69 679.23 604.64 C679.24 607.67 679.23 610.7 679.22 613.73 C679.22 615.85 679.23 617.97 679.23 620.09 C679.23 624.52 679.23 628.95 679.22 633.38 C679.21 639.05 679.21 644.72 679.23 650.39 C679.23 654.76 679.23 659.14 679.23 663.51 C679.22 665.6 679.23 667.69 679.23 669.78 C679.24 672.7 679.23 675.63 679.22 678.55 C679.22 679.41 679.22 680.26 679.23 681.14 C679.19 686.47 678.4 691 676.96 696.13 C676.64 698.42 676.64 698.42 676.61 700.43 C676.57 701.54 676.57 701.54 676.53 702.68 C676.49 703.83 676.49 703.83 676.46 705 C676.18 711.66 675.74 718.26 675.02 724.88 C674.91 725.97 674.91 725.97 674.79 727.08 C674.43 730.31 673.9 733.32 672.99 736.45 C671.36 742.27 670.82 748.22 670.1 754.21 C669.92 755.63 669.92 755.63 669.74 757.07 C669.64 757.93 669.53 758.78 669.43 759.65 C668.92 762.33 667.99 764.61 666.96 767.13 C666.65 768.54 666.39 769.95 666.18 771.38 C666 772.54 666 772.54 665.81 773.72 C665.7 774.52 665.58 775.31 665.46 776.13 C664.73 781.09 663.97 785.5 661.96 790.13 C661.65 791.54 661.38 792.96 661.15 794.38 C660.12 799.8 658.58 805.03 656.99 810.3 C655.82 814.18 654.69 818.07 653.63 821.98 C653.41 822.78 653.19 823.58 652.97 824.4 C652.56 825.92 652.15 827.45 651.75 828.98 C650.5 833.56 648.85 837.76 646.96 842.13 C646.27 844.39 645.63 846.66 645.02 848.94 C643.6 854.06 641.95 858.93 639.9 863.82 C638.96 866.13 638.16 868.45 637.4 870.82 C636.14 874.7 634.62 878.4 632.96 882.13 C632.3 882.13 631.64 882.13 630.96 882.13 C630.92 883.2 630.88 884.27 630.83 885.38 C630.21 890.64 627.79 894.87 625.33 899.49 C623.87 902.13 623.87 902.13 622.96 905.13 C622.3 905.13 621.64 905.13 620.96 905.13 C620.87 906.14 620.77 907.16 620.68 908.2 C619.92 912.34 618.47 915.42 616.4 919 C613.3 924.55 610.48 930.16 607.83 935.94 C604.91 942.27 601.67 948.22 597.96 954.13 C596.7 956.23 595.45 958.33 594.21 960.44 C593.64 961.41 593.06 962.37 592.47 963.37 C590.91 966.08 590.91 966.08 589.88 968.92 C588.96 971.13 588.96 971.13 586.96 972.13 C585.92 974.11 584.93 976.11 583.96 978.13 C581.92 981.77 579.56 984.88 576.96 988.13 C575.93 989.78 574.93 991.44 573.96 993.13 C571.85 996.77 569.54 1000.13 567.02 1003.5 C564.02 1007.59 561.34 1011.65 558.96 1016.13 C558.3 1016.13 557.64 1016.13 556.96 1016.13 C555.75 1018.46 554.79 1020.63 553.96 1023.13 C553.3 1023.13 552.64 1023.13 551.96 1023.13 C551.56 1024.03 551.56 1024.03 551.15 1024.94 C549.95 1027.14 548.71 1028.38 546.96 1030.13 C546.51 1030.89 546.06 1031.65 545.59 1032.43 C540.19 1041.35 532.68 1049.55 525.21 1056.82 C522.59 1059.39 520.68 1061.86 518.96 1065.13 C518.3 1066.12 517.64 1067.11 516.96 1068.13 C516.3 1068.13 515.64 1068.13 514.96 1068.13 C514.59 1068.98 514.59 1068.98 514.22 1069.85 C512.71 1072.57 510.92 1074.42 508.72 1076.62 C507.41 1077.94 507.41 1077.94 506.07 1079.29 C505.12 1080.24 504.16 1081.19 503.21 1082.15 C502.23 1083.13 501.25 1084.11 500.27 1085.09 C498.22 1087.14 496.17 1089.19 494.12 1091.23 C491.48 1093.86 488.85 1096.49 486.23 1099.13 C484.21 1101.15 482.19 1103.17 480.17 1105.19 C479.19 1106.16 478.23 1107.13 477.26 1108.1 C475.91 1109.46 474.55 1110.81 473.19 1112.15 C472.42 1112.92 471.65 1113.69 470.86 1114.49 C468.96 1116.13 468.96 1116.13 466.96 1116.13 C466.96 1116.79 466.96 1117.45 466.96 1118.13 C464.63 1120.19 462.35 1121.92 459.62 1123.42 C455.4 1126.13 452.23 1129.83 448.77 1133.44 C446 1136.09 443.18 1138.05 439.96 1140.13 C438.58 1141.29 437.22 1142.47 435.9 1143.69 C433.06 1146.23 430.27 1148.24 426.96 1150.13 C426.4 1150.69 425.84 1151.24 425.27 1151.82 C424.84 1152.25 424.4 1152.68 423.96 1153.13 C423.3 1153.13 422.64 1153.13 421.96 1153.13 C421.96 1153.79 421.96 1154.45 421.96 1155.13 C417.57 1158.13 417.57 1158.13 414.96 1158.13 C414.96 1158.79 414.96 1159.45 414.96 1160.13 C413.56 1161.17 413.56 1161.17 411.58 1162.32 C407.36 1164.85 403.36 1167.62 399.35 1170.48 C397.76 1171.58 396.13 1172.63 394.47 1173.62 C391.87 1175.18 389.42 1176.87 386.96 1178.63 C382.71 1181.66 378.46 1184.39 373.77 1186.69 C370.91 1187.97 370.91 1187.97 368.96 1190.13 C367.69 1190.89 366.39 1191.62 365.08 1192.32 C361.54 1194.25 358.05 1196.25 354.58 1198.32 C341.06 1206.23 326.99 1213.19 312.96 1220.13 C312.21 1220.53 311.46 1220.93 310.69 1221.34 C308.39 1222.39 306.45 1222.27 303.96 1222.13 C303.63 1223.12 303.3 1224.11 302.96 1225.13 C301.3 1225.63 301.3 1225.63 298.96 1226.13 C295.66 1227.65 292.41 1229.25 289.15 1230.85 C286.09 1232.08 284.2 1232.41 280.96 1232.13 C280.96 1232.79 280.96 1233.45 280.96 1234.13 C276.66 1236.02 272.41 1237.64 267.96 1239.13 C266.8 1239.62 265.65 1240.12 264.46 1240.63 C257.99 1243.4 251.27 1245.18 244.49 1247.03 C240.93 1248.07 240.93 1248.07 237.56 1249.61 C233.5 1251.32 229.46 1252.46 225.21 1253.57 C219.06 1255.21 213.12 1257.03 207.22 1259.43 C204.96 1260.13 204.96 1260.13 202.42 1260.11 C199.97 1259.95 199.97 1259.95 198.07 1261.08 C195.89 1262.16 194.17 1262.56 191.77 1262.91 C190.6 1263.09 190.6 1263.09 189.4 1263.27 C187.77 1263.51 186.14 1263.75 184.51 1263.98 C183.34 1264.16 183.34 1264.16 182.15 1264.35 C181.44 1264.45 180.73 1264.55 180 1264.66 C177.76 1265.18 175.99 1266.06 173.96 1267.13 C167.9 1268.78 161.75 1269.42 155.5 1269.79 C152.92 1270.03 152.92 1270.03 150.52 1271.13 C147.52 1272.3 144.93 1272.51 141.71 1272.69 C138.02 1272.6 138.02 1272.6 134.96 1274.13 C131.53 1274.42 128.1 1274.58 124.67 1274.75 C120.97 1275.01 120.97 1275.01 117.59 1276.13 C113.18 1277.34 109.07 1277.51 104.52 1277.63 C102.9 1277.67 101.27 1277.73 99.65 1277.79 C98.94 1277.8 98.23 1277.82 97.5 1277.84 C94.76 1278.08 94.76 1278.08 91.4 1279.13 C86.69 1280.32 82.19 1280.41 77.35 1280.39 C76.42 1280.39 75.5 1280.4 74.54 1280.4 C71.5 1280.41 68.46 1280.4 65.42 1280.4 C63.3 1280.4 61.17 1280.4 59.05 1280.4 C54.61 1280.4 50.17 1280.4 45.72 1280.39 C40.04 1280.38 34.35 1280.39 28.67 1280.4 C24.29 1280.4 19.9 1280.4 15.52 1280.4 C13.42 1280.4 11.33 1280.4 9.23 1280.4 C6.3 1280.41 3.37 1280.4 0.44 1280.39 C-0.42 1280.39 -1.28 1280.4 -2.17 1280.4 C-7.19 1280.37 -11.27 1279.69 -16.04 1278.13 C-18.49 1277.81 -18.49 1277.81 -20.78 1277.79 C-21.62 1277.76 -22.46 1277.73 -23.33 1277.7 C-24.18 1277.67 -25.04 1277.65 -25.92 1277.63 C-31.86 1277.48 -37.31 1276.97 -43.09 1275.56 C-45.4 1275.05 -47.5 1274.99 -49.85 1275.13 C-52.35 1275.27 -53.69 1275.31 -55.93 1274.16 C-58.66 1272.83 -60.96 1272.78 -63.98 1272.63 C-68.16 1272.42 -71.18 1271.71 -75.04 1270.13 C-77.53 1269.79 -77.53 1269.79 -80.1 1269.69 C-85.24 1269.3 -89.96 1268.27 -94.93 1266.95 C-102.95 1264.83 -111.06 1263.06 -119.21 1261.56 C-121.04 1261.13 -121.04 1261.13 -122.04 1260.13 C-125.56 1259.33 -129.09 1258.65 -132.62 1257.95 C-135.52 1257.25 -137.43 1256.44 -140.04 1255.13 C-143.33 1254.26 -146.62 1253.47 -149.93 1252.72 C-154.56 1251.62 -158.68 1250.04 -163.04 1248.13 C-165.3 1247.45 -167.57 1246.8 -169.85 1246.19 C-174.98 1244.77 -179.84 1243.12 -184.74 1241.07 C-187.04 1240.13 -189.36 1239.33 -191.73 1238.57 C-195.62 1237.31 -199.31 1235.8 -203.04 1234.13 C-203.04 1233.47 -203.04 1232.81 -203.04 1232.13 C-204.11 1232.09 -205.19 1232.05 -206.29 1232 C-211.55 1231.38 -215.79 1228.96 -220.41 1226.5 C-223.04 1225.04 -223.04 1225.04 -226.04 1224.13 C-226.04 1223.47 -226.04 1222.81 -226.04 1222.13 C-227.06 1222.04 -228.07 1221.95 -229.11 1221.85 C-233.25 1221.09 -236.33 1219.64 -239.92 1217.57 C-245.47 1214.47 -251.08 1211.65 -256.85 1209 C-263.19 1206.08 -269.13 1202.84 -275.04 1199.13 C-277.14 1197.87 -279.25 1196.62 -281.35 1195.38 C-282.32 1194.81 -283.29 1194.23 -284.28 1193.65 C-286.99 1192.08 -286.99 1192.08 -289.83 1191.05 C-292.04 1190.13 -292.04 1190.13 -293.04 1188.13 C-295.02 1187.09 -297.03 1186.1 -299.04 1185.13 C-301.71 1183.63 -304.05 1182.12 -306.42 1180.19 C-309.48 1177.78 -312.63 1176 -316.04 1174.13 C-316.04 1173.47 -316.04 1172.81 -316.04 1172.13 C-316.76 1172.05 -317.49 1171.96 -318.23 1171.88 C-321.66 1170.96 -323.38 1169.46 -326.04 1167.13 C-328.7 1164.88 -331.04 1163.13 -334.17 1161.57 C-336.78 1160.26 -338.07 1159.19 -340.04 1157.13 C-342.14 1155.95 -342.14 1155.95 -344.04 1155.13 C-344.04 1154.47 -344.04 1153.81 -344.04 1153.13 C-344.64 1152.86 -345.24 1152.59 -345.85 1152.32 C-348.05 1151.12 -349.29 1149.88 -351.04 1148.13 C-351.8 1147.68 -352.56 1147.23 -353.34 1146.77 C-356.03 1145.14 -358.41 1143.36 -360.85 1141.38 C-361.72 1140.68 -362.58 1139.98 -363.47 1139.27 C-366.5 1136.75 -369.44 1134.14 -372.35 1131.48 C-374.11 1129.91 -374.11 1129.91 -377.04 1129.13 C-377.04 1128.14 -377.04 1127.15 -377.04 1126.13 C-377.7 1126.13 -378.36 1126.13 -379.04 1126.13 C-379.04 1125.47 -379.04 1124.81 -379.04 1124.13 C-380.03 1124.13 -381.02 1124.13 -382.04 1124.13 C-382.04 1123.47 -382.04 1122.81 -382.04 1122.13 C-382.64 1121.84 -383.24 1121.55 -383.85 1121.25 C-386.04 1120.13 -386.04 1120.13 -389.04 1118.13 C-389.04 1117.47 -389.04 1116.81 -389.04 1116.13 C-389.6 1115.9 -390.16 1115.67 -390.73 1115.44 C-394.65 1113.22 -397.42 1109.78 -400.51 1106.54 C-402.91 1104.26 -405.2 1102.8 -408.04 1101.13 C-409.56 1099.55 -409.56 1099.55 -410.85 1097.88 C-413.07 1095.17 -415.37 1092.89 -418.04 1090.63 C-421.2 1087.94 -423.9 1085.15 -426.53 1081.96 C-428.78 1079.24 -431.16 1076.64 -433.53 1074.02 C-435.03 1072.14 -436.05 1070.32 -437.04 1068.13 C-437.7 1068.13 -438.36 1068.13 -439.04 1068.13 C-441.4 1065.48 -442.91 1063.51 -444.04 1060.13 C-445.03 1059.8 -446.02 1059.47 -447.04 1059.13 C-447.04 1058.47 -447.04 1057.81 -447.04 1057.13 C-447.7 1057.13 -448.36 1057.13 -449.04 1057.13 C-449.04 1056.14 -449.04 1055.15 -449.04 1054.13 C-449.7 1054.13 -450.36 1054.13 -451.04 1054.13 C-451.04 1053.47 -451.04 1052.81 -451.04 1052.13 C-452.03 1051.8 -453.02 1051.47 -454.04 1051.13 C-455.51 1049.2 -455.51 1049.2 -456.98 1046.82 C-459.09 1043.51 -461.17 1040.81 -464.04 1038.13 C-466.37 1035.4 -467.9 1033.55 -469.04 1030.13 C-469.89 1029.28 -470.73 1028.44 -471.6 1027.57 C-472.41 1026.76 -473.21 1025.96 -474.04 1025.13 C-474.04 1024.47 -474.04 1023.81 -474.04 1023.13 C-474.7 1023.13 -475.36 1023.13 -476.04 1023.13 C-476.54 1021.64 -476.54 1021.64 -477.04 1020.13 C-477.97 1019.51 -477.97 1019.51 -478.92 1018.88 C-481.85 1016.47 -482.59 1013.59 -484.04 1010.13 C-485.03 1009.47 -486.02 1008.81 -487.04 1008.13 C-488.06 1006.14 -489.06 1004.14 -490.04 1002.13 C-492.16 998.9 -494.31 995.86 -497.04 993.13 C-499.04 991.13 -499.04 991.13 -499.98 988.75 C-500.92 986.09 -500.92 986.09 -502.67 984 C-504.04 982.13 -504.04 982.13 -504.04 979.13 C-505.03 978.8 -506.02 978.47 -507.04 978.13 C-507.75 976.14 -508.41 974.14 -509.04 972.13 C-509.7 971.8 -510.36 971.47 -511.04 971.13 C-511.54 969.64 -511.54 969.64 -512.04 968.13 C-512.7 967.47 -513.36 966.81 -514.04 966.13 C-515.63 963.05 -517.11 959.92 -518.6 956.78 C-519.77 954.03 -519.77 954.03 -522.04 953.13 C-522.38 951.8 -522.71 950.46 -523.04 949.13 C-524.06 947.09 -525.13 945.07 -526.23 943.07 C-527.17 941.34 -527.17 941.34 -528.14 939.58 C-529.32 937.43 -530.51 935.29 -531.7 933.15 C-535.38 926.49 -538.83 919.89 -541.17 912.63 C-541.77 909.98 -541.77 909.98 -544.04 909.13 C-544.79 907.27 -544.79 907.27 -545.48 904.94 C-546.69 901.1 -548.18 897.71 -550.04 894.13 C-551.33 891.33 -552.6 888.52 -553.86 885.72 C-554.59 884.12 -555.34 882.55 -556.14 880.99 C-557.21 878.79 -557.77 876.53 -558.42 874.17 C-559.93 869.23 -562.06 864.48 -564.05 859.72 C-566.43 853.94 -568.35 848.11 -570.11 842.11 C-570.98 839.17 -570.98 839.17 -572.07 836.58 C-573.09 834 -573.8 831.45 -574.48 828.75 C-575.36 825.43 -576.3 822.32 -577.73 819.19 C-579.04 816.13 -579.04 816.13 -579.04 812.13 C-579.58 810.19 -579.58 810.19 -580.35 808.19 C-582.41 802.28 -583.69 796.23 -585.04 790.13 C-585.54 788 -586.04 785.88 -586.54 783.75 C-588.2 776.58 -589.62 769.36 -591.04 762.13 C-591.4 760.4 -591.75 758.67 -592.1 756.94 C-593.03 752.33 -593.79 747.7 -594.54 743.06 C-594.99 740.45 -595.53 737.89 -596.1 735.32 C-597.25 729.83 -597.46 724.33 -597.7 718.74 C-597.92 715.12 -597.92 715.12 -599.07 711.72 C-600.22 707.47 -600.23 703.75 -600.1 699.38 C-599.9 693.68 -599.9 693.68 -601.04 688.13 C-601.14 685.11 -601.19 682.11 -601.19 679.09 C-601.19 678.16 -601.19 677.24 -601.2 676.28 C-601.21 673.22 -601.21 670.15 -601.21 667.08 C-601.21 664.95 -601.22 662.82 -601.22 660.69 C-601.23 656.22 -601.23 651.74 -601.23 647.27 C-601.23 641.55 -601.24 635.82 -601.26 630.1 C-601.27 625.7 -601.27 621.29 -601.27 616.89 C-601.27 614.78 -601.28 612.67 -601.28 610.56 C-601.29 607.6 -601.29 604.64 -601.28 601.69 C-601.29 600.82 -601.3 599.95 -601.3 599.06 C-601.28 594.03 -600.66 589.9 -599.04 585.13 C-599.7 584.8 -600.36 584.47 -601.04 584.13 C-600.93 581.52 -600.8 578.92 -600.67 576.32 C-600.64 575.58 -600.61 574.84 -600.57 574.08 C-600.37 570.31 -600.18 568.33 -598.04 565.13 C-597.71 563.05 -597.71 563.05 -597.7 560.79 C-597.67 559.95 -597.64 559.12 -597.61 558.26 C-597.59 557.39 -597.56 556.52 -597.54 555.63 C-597.5 553.91 -597.45 552.19 -597.39 550.47 C-597.37 549.71 -597.35 548.95 -597.33 548.17 C-597.04 546.13 -597.04 546.13 -595.04 543.13 C-594.8 540.38 -594.8 540.38 -594.92 537.44 C-594.94 535.95 -594.94 535.95 -594.97 534.43 C-594.99 533.67 -595.02 532.91 -595.04 532.13 C-594.38 531.8 -593.72 531.47 -593.04 531.13 C-592.78 528.87 -592.64 526.59 -592.54 524.32 C-592.36 519.95 -592.12 516.95 -590.04 513.13 C-589.63 510.84 -589.63 510.84 -589.48 508.5 C-589.14 504.32 -589.14 504.32 -588.04 502.13 C-587.77 500.09 -587.6 498.05 -587.42 496 C-587.04 494.13 -587.04 494.13 -585.04 492.13 C-584.62 489.76 -584.62 489.76 -584.48 487.13 C-584.14 482.32 -584.14 482.32 -583.04 480.13 C-582.9 478.95 -582.75 477.78 -582.6 476.57 C-582.42 475.43 -582.23 474.3 -582.04 473.13 C-581.38 472.8 -580.72 472.47 -580.04 472.13 C-579.63 469.81 -579.3 467.47 -579.04 465.13 C-578.38 465.13 -577.72 465.13 -577.04 465.13 C-577.37 464.14 -577.7 463.15 -578.04 462.13 C-577.73 459 -577.73 459 -577.04 456.13 C-576.38 455.8 -575.72 455.47 -575.04 455.13 C-574.75 453.1 -574.47 451.08 -574.29 449.04 C-574.04 447.13 -574.04 447.13 -573.04 445.13 C-572.83 443.89 -572.83 443.89 -572.6 442.63 C-572.04 440.13 -572.04 440.13 -570.04 438.13 C-569.64 436.14 -569.3 434.14 -569.04 432.13 C-568.71 432.13 -568.38 432.13 -568.04 432.13 C-567.92 431.02 -567.79 429.9 -567.67 428.75 C-567.04 425.13 -567.04 425.13 -565.04 423.13 C-564.64 421.14 -564.3 419.14 -564.04 417.13 C-563.71 417.13 -563.38 417.13 -563.04 417.13 C-562.92 416.16 -562.79 415.19 -562.67 414.19 C-562.46 413.18 -562.25 412.17 -562.04 411.13 C-561.38 410.8 -560.72 410.47 -560.04 410.13 C-559.39 407.6 -559.39 407.6 -559.04 405.13 C-558.38 405.13 -557.72 405.13 -557.04 405.13 C-557.08 404.18 -557.12 403.23 -557.17 402.25 C-557.04 399.13 -557.04 399.13 -555.04 397.13 C-554.39 394.56 -554.39 394.56 -554.04 392.13 C-553.71 392.13 -553.38 392.13 -553.04 392.13 C-552.92 391.16 -552.79 390.19 -552.67 389.19 C-552.46 388.18 -552.25 387.17 -552.04 386.13 C-551.38 385.8 -550.72 385.47 -550.04 385.13 C-548.98 382.96 -548.98 382.96 -548.04 380.38 C-547.71 379.52 -547.38 378.66 -547.04 377.77 C-546.71 376.9 -546.38 376.03 -546.04 375.13 C-545.38 373.46 -544.71 371.79 -544.04 370.13 C-543.38 370.13 -542.72 370.13 -542.04 370.13 C-542.04 368.15 -542.04 366.17 -542.04 364.13 C-541.38 363.8 -540.72 363.47 -540.04 363.13 C-539.21 361.05 -539.21 361.05 -538.54 358.63 C-537.82 356.16 -537.82 356.16 -537.04 354.13 C-536.38 353.8 -535.72 353.47 -535.04 353.13 C-534.21 351.05 -534.21 351.05 -533.54 348.63 C-532.82 346.16 -532.82 346.16 -532.04 344.13 C-531.38 343.8 -530.72 343.47 -530.04 343.13 C-529.14 341.25 -529.14 341.25 -528.42 339.07 C-528.16 338.33 -527.9 337.6 -527.63 336.84 C-527.43 336.28 -527.24 335.71 -527.04 335.13 C-526.38 335.13 -525.72 335.13 -525.04 335.13 C-524.71 333.48 -524.38 331.83 -524.04 330.13 C-523.38 330.13 -522.72 330.13 -522.04 330.13 C-521.9 329.51 -521.75 328.89 -521.6 328.25 C-521.04 326.13 -521.04 326.13 -520.04 324.13 C-519.04 321.8 -518.04 319.46 -517.04 317.13 C-516.38 317.13 -515.72 317.13 -515.04 317.13 C-514.87 316.28 -514.87 316.28 -514.69 315.41 C-513.98 312.9 -512.95 310.9 -511.67 308.63 C-511.25 307.88 -510.83 307.12 -510.39 306.35 C-509.05 304.15 -507.71 302.09 -506.04 300.13 C-505.38 300.13 -504.72 300.13 -504.04 300.13 C-504.12 299.37 -504.21 298.6 -504.29 297.82 C-504.21 296.93 -504.13 296.04 -504.04 295.13 C-502.74 294.09 -501.4 293.09 -500.04 292.13 C-499.71 291.28 -499.38 290.44 -499.04 289.57 C-498.04 287.13 -498.04 287.13 -495.92 285.82 C-494.99 285.48 -494.99 285.48 -494.04 285.13 C-494.12 284.37 -494.21 283.6 -494.29 282.82 C-494.21 281.93 -494.13 281.04 -494.04 280.13 C-492.73 279.1 -491.39 278.11 -490.04 277.13 C-488.54 274.87 -487.31 272.54 -486.04 270.13 C-485.38 270.13 -484.72 270.13 -484.04 270.13 C-483.94 269.55 -483.84 268.97 -483.73 268.38 C-482.94 265.8 -481.72 264.23 -480.04 262.13 C-479.71 261.47 -479.38 260.81 -479.04 260.13 C-478.38 260.13 -477.72 260.13 -477.04 260.13 C-476.71 258.81 -476.38 257.49 -476.04 256.13 C-475.38 256.46 -474.72 256.79 -474.04 257.13 C-473.96 256.35 -473.88 255.56 -473.79 254.75 C-473.54 253.89 -473.3 253.02 -473.04 252.13 C-471.73 251.43 -470.39 250.76 -469.04 250.13 C-468.45 248.18 -468.45 248.18 -468.04 246.13 C-467.06 245.11 -466.06 244.11 -465.04 243.13 C-464.73 242.45 -464.42 241.77 -464.1 241.07 C-462.78 238.65 -461.47 238.3 -459.04 237.13 C-458.71 236.14 -458.38 235.15 -458.04 234.13 C-455.9 230.07 -453.28 227.18 -449.98 224 C-447.32 221.43 -445.1 219.22 -443.04 216.13 C-442.59 215.7 -442.13 215.26 -441.67 214.82 C-439.91 213.12 -439.91 213.12 -438.55 210.66 C-435.16 205.52 -430.57 201.36 -426.24 197.02 C-425.27 196.05 -424.3 195.08 -423.34 194.11 C-421.32 192.09 -419.3 190.06 -417.27 188.04 C-414.68 185.46 -412.11 182.87 -409.54 180.28 C-407.55 178.27 -405.55 176.27 -403.55 174.28 C-402.14 172.86 -400.73 171.44 -399.33 170.02 C-398.46 169.16 -397.59 168.3 -396.7 167.41 C-395.94 166.66 -395.19 165.9 -394.41 165.12 C-392.04 163.13 -392.04 163.13 -388.81 161.55 C-385.74 160.38 -385.74 160.38 -385.04 157.13 C-383.38 156.12 -381.72 155.12 -380.04 154.13 C-378.29 152.49 -376.58 150.8 -374.92 149.07 C-372.34 146.4 -370.13 144.19 -367.04 142.13 C-366.05 142.13 -365.06 142.13 -364.04 142.13 C-363.79 141.51 -363.55 140.89 -363.29 140.25 C-361.8 137.72 -360.67 137.32 -358.04 136.13 C-357.3 135.36 -357.3 135.36 -356.54 134.57 C-355.04 133.13 -355.04 133.13 -352.98 132.69 C-352.34 132.51 -351.7 132.32 -351.04 132.13 C-349.95 130.2 -349.95 130.2 -349.04 128.13 C-348.05 127.47 -347.06 126.81 -346.04 126.13 C-345.38 126.46 -344.72 126.79 -344.04 127.13 C-344.04 126.14 -344.04 125.15 -344.04 124.13 C-343.05 124.13 -342.06 124.13 -341.04 124.13 C-341.04 123.47 -341.04 122.81 -341.04 122.13 C-340.38 122.13 -339.72 122.13 -339.04 122.13 C-339.04 121.47 -339.04 120.81 -339.04 120.13 C-336.95 119.01 -335.19 118.16 -332.85 117.69 C-332.26 117.51 -331.66 117.32 -331.04 117.13 C-330.71 116.14 -330.38 115.15 -330.04 114.13 C-328.29 113.11 -326.54 112.1 -324.73 111.19 C-322.72 110.09 -322.72 110.09 -321.04 107.13 C-318.42 106.94 -318.42 106.94 -316.04 107.13 C-315.73 105.95 -315.73 105.95 -315.42 104.75 C-314.04 102.13 -314.04 102.13 -311.1 101 C-310.09 100.72 -309.08 100.43 -308.04 100.13 C-307.24 99.33 -307.24 99.33 -306.42 98.5 C-305.74 97.82 -305.74 97.82 -305.04 97.13 C-303.72 97.13 -302.4 97.13 -301.04 97.13 C-300.71 96.14 -300.38 95.15 -300.04 94.13 C-297.73 92.69 -295.44 91.4 -293.04 90.13 C-291.77 89.4 -290.5 88.68 -289.23 87.94 C-287.52 86.97 -285.8 86.01 -284.04 85.13 C-283.44 84.63 -282.85 84.14 -282.23 83.63 C-279.8 81.96 -277.93 81.53 -275.04 81.13 C-275.04 80.47 -275.04 79.81 -275.04 79.13 C-274.26 78.82 -273.47 78.51 -272.67 78.19 C-270.12 77.2 -270.12 77.2 -268.04 76.13 C-267.38 76.46 -266.72 76.79 -266.04 77.13 C-266.04 76.47 -266.04 75.81 -266.04 75.13 C-265.38 75.13 -264.72 75.13 -264.04 75.13 C-263.71 74.47 -263.38 73.81 -263.04 73.13 C-261.06 72.4 -259.06 71.73 -257.04 71.13 C-257.04 70.47 -257.04 69.81 -257.04 69.13 C-256.4 68.94 -255.77 68.74 -255.11 68.54 C-254.28 68.28 -253.46 68.02 -252.6 67.75 C-251.78 67.5 -250.96 67.24 -250.11 66.98 C-247.86 66.32 -247.86 66.32 -247.04 64.13 C-245.38 63.77 -243.71 63.44 -242.04 63.13 C-238.87 61.87 -238.87 61.87 -237.04 59.13 C-235.06 59.13 -233.08 59.13 -231.04 59.13 C-231.04 58.47 -231.04 57.81 -231.04 57.13 C-228.5 56.11 -225.96 55.1 -223.4 54.13 C-222.11 53.63 -222.11 53.63 -220.79 53.13 C-219.48 52.63 -219.48 52.63 -218.15 52.13 C-215.88 51.32 -215.88 51.32 -215.04 49.13 C-211.98 48.5 -211.98 48.5 -209.04 48.13 C-209.04 47.8 -209.04 47.47 -209.04 47.13 C-207.59 46.67 -207.59 46.67 -206.1 46.19 C-203.2 45.43 -203.2 45.43 -202.04 44.13 C-200.04 44.09 -198.04 44.09 -196.04 44.13 C-196.04 43.47 -196.04 42.81 -196.04 42.13 C-194.06 41.8 -192.08 41.47 -190.04 41.13 C-190.04 40.47 -190.04 39.81 -190.04 39.13 C-188.06 38.8 -186.08 38.47 -184.04 38.13 C-184.04 37.8 -184.04 37.47 -184.04 37.13 C-182.91 37.01 -181.77 36.88 -180.6 36.75 C-179.43 36.55 -178.25 36.34 -177.04 36.13 C-176.71 35.47 -176.38 34.81 -176.04 34.13 C-173.72 33.72 -171.39 33.39 -169.04 33.13 C-169.04 32.8 -169.04 32.47 -169.04 32.13 C-167.91 32.01 -166.77 31.88 -165.6 31.75 C-164.43 31.55 -163.25 31.34 -162.04 31.13 C-161.71 30.47 -161.38 29.81 -161.04 29.13 C-158.72 28.72 -156.39 28.39 -154.04 28.13 C-154.04 27.8 -154.04 27.47 -154.04 27.13 C-150.97 26.84 -150.97 26.84 -147.89 26.54 C-146.98 26.34 -146.98 26.34 -146.04 26.13 C-145.71 25.47 -145.38 24.81 -145.04 24.13 C-138.61 22.84 -138.61 22.84 -136.04 24.13 C-136.04 23.47 -136.04 22.81 -136.04 22.13 C-134.91 22.01 -133.77 21.88 -132.6 21.75 C-131.43 21.55 -130.25 21.34 -129.04 21.13 C-128.71 20.47 -128.38 19.81 -128.04 19.13 C-125.98 18.72 -125.98 18.72 -123.48 18.5 C-122.65 18.43 -121.83 18.35 -120.98 18.28 C-120.34 18.23 -119.7 18.18 -119.04 18.13 C-119.04 17.8 -119.04 17.47 -119.04 17.13 C-117.99 17.06 -117.99 17.06 -116.92 16.98 C-116.01 16.91 -115.1 16.83 -114.17 16.75 C-113.26 16.68 -112.36 16.62 -111.42 16.54 C-108.86 16.33 -108.86 16.33 -107.04 14.13 C-104.66 13.72 -104.66 13.72 -101.92 13.5 C-101.01 13.43 -100.1 13.35 -99.16 13.28 C-98.11 13.2 -98.11 13.2 -97.04 13.13 C-97.04 12.8 -97.04 12.47 -97.04 12.13 C-96.27 12.08 -95.5 12.03 -94.71 11.98 C-93.7 11.91 -92.7 11.83 -91.67 11.75 C-90.67 11.68 -89.67 11.62 -88.64 11.54 C-85.89 11.37 -85.89 11.37 -84.04 9.13 C-81.55 8.68 -81.55 8.68 -78.6 8.44 C-77.64 8.36 -76.67 8.27 -75.67 8.18 C-73.04 8.13 -73.04 8.13 -70.04 9.13 C-70.04 8.47 -70.04 7.81 -70.04 7.13 C-67.04 6.4 -64.53 6.14 -61.42 6.19 C-57.91 6.43 -57.91 6.43 -55.04 4.13 C-53 3.84 -53 3.84 -50.7 3.79 C-49.45 3.74 -49.45 3.74 -48.17 3.7 C-45.54 3.63 -45.54 3.63 -42.91 3.56 C-41.66 3.52 -41.66 3.52 -40.39 3.47 C-39.62 3.45 -38.86 3.44 -38.08 3.42 C-35.73 3.24 -35.73 3.24 -33.04 1.13 C-30.82 0.92 -30.82 0.92 -28.26 0.97 C-27.34 0.98 -26.41 0.99 -25.46 1 C-24.5 1.02 -23.53 1.04 -22.54 1.07 C-20.64 1.1 -18.73 1.13 -16.82 1.16 C-15.98 1.17 -15.13 1.19 -14.26 1.21 C-9.5 1.04 -4.92 -0.01 0 0 Z M580.96 974.13 C580.96 975.12 580.96 976.11 580.96 977.13 C581.95 976.8 582.94 976.47 583.96 976.13 C583.96 975.47 583.96 974.81 583.96 974.13 C582.97 974.13 581.98 974.13 580.96 974.13 Z M560.96 1004.13 C560.96 1005.12 560.96 1006.11 560.96 1007.13 C561.95 1006.8 562.94 1006.47 563.96 1006.13 C563.96 1005.47 563.96 1004.81 563.96 1004.13 C562.97 1004.13 561.98 1004.13 560.96 1004.13 Z " fill="#007AB9" transform="translate(601.0419921875,-0.12939453125)"/>
<path d="M0 0 C16.2 -0.35 31.86 -0.06 47.78 3.07 C48.52 3.21 49.25 3.35 50.01 3.5 C89.49 11.17 125.02 33.75 147.78 67.07 C167.84 97.56 177.95 131.37 182.41 167.39 C182.53 168.34 182.66 169.29 182.78 170.27 C185.26 191.64 184.93 213.39 184.91 234.87 C184.92 237.42 184.92 239.97 184.92 242.52 C184.92 248.65 184.92 254.77 184.92 260.9 C184.92 265.88 184.92 270.86 184.92 275.83 C184.92 276.55 184.92 277.26 184.92 278 C184.92 279.45 184.92 280.9 184.92 282.35 C184.92 295.87 184.92 309.39 184.91 322.9 C184.91 334.49 184.91 346.08 184.92 357.67 C184.92 371.19 184.92 384.7 184.92 398.21 C184.92 399.65 184.92 401.09 184.92 402.53 C184.92 403.23 184.92 403.94 184.92 404.67 C184.92 409.65 184.92 414.63 184.92 419.62 C184.92 426.3 184.92 432.99 184.92 439.67 C184.91 442.13 184.92 444.58 184.92 447.04 C184.92 450.38 184.92 453.72 184.91 457.06 C184.91 458.04 184.92 459.02 184.92 460.03 C184.92 460.93 184.91 461.82 184.91 462.74 C184.91 463.51 184.91 464.28 184.91 465.07 C184.78 467.07 184.78 467.07 183.78 470.07 C164.11 470.1 144.44 470.11 124.77 470.13 C115.64 470.13 106.51 470.14 97.37 470.15 C89.42 470.16 81.46 470.17 73.5 470.17 C69.29 470.17 65.07 470.17 60.85 470.18 C56.89 470.19 52.93 470.19 48.96 470.19 C47.51 470.19 46.05 470.19 44.59 470.19 C42.6 470.2 40.62 470.2 38.64 470.19 C37.52 470.19 36.41 470.2 35.27 470.2 C32.78 470.07 32.78 470.07 31.78 469.07 C31.68 465.94 31.63 462.84 31.63 459.7 C31.63 458.21 31.63 458.21 31.62 456.69 C31.61 453.32 31.6 449.95 31.6 446.59 C31.59 444.19 31.58 441.78 31.57 439.38 C31.55 434.19 31.54 429 31.52 423.81 C31.51 416.28 31.48 408.75 31.45 401.23 C31.41 388.99 31.37 376.75 31.34 364.51 C31.33 363.78 31.33 363.05 31.33 362.29 C31.32 357.84 31.3 353.38 31.29 348.93 C31.27 342.28 31.25 335.63 31.23 328.98 C31.23 328.26 31.23 327.53 31.23 326.78 C31.19 314.61 31.15 302.44 31.11 290.27 C31.08 283.45 31.06 276.62 31.05 269.8 C31.03 263.36 31.01 256.92 30.99 250.49 C30.98 248.14 30.97 245.79 30.97 243.44 C31.02 217.09 31.02 217.09 28.1 190.95 C27.92 189.94 27.75 188.93 27.57 187.89 C24.1 168.98 16.83 151.63 2.78 138.07 C2.05 137.35 1.31 136.64 0.55 135.89 C-6.48 129.65 -14.39 126.87 -23.22 124.07 C-24.42 123.69 -24.42 123.69 -25.65 123.3 C-46.97 117.61 -68.9 122.42 -87.73 133 C-92.25 135.63 -96.31 138.61 -100.22 142.07 C-100.85 142.61 -101.49 143.14 -102.15 143.69 C-114.13 154.54 -122.57 170.77 -126.47 186.26 C-126.63 186.9 -126.79 187.53 -126.96 188.18 C-130.54 203.8 -129.38 220.77 -129.42 236.67 C-129.43 239.22 -129.44 241.77 -129.45 244.33 C-129.47 249.8 -129.49 255.26 -129.51 260.73 C-129.53 268.64 -129.56 276.54 -129.59 284.45 C-129.63 297.28 -129.68 310.11 -129.72 322.94 C-129.76 335.39 -129.8 347.84 -129.84 360.3 C-129.85 361.45 -129.85 361.45 -129.85 362.63 C-129.86 366.49 -129.88 370.35 -129.89 374.21 C-130.01 406.16 -130.11 438.12 -130.22 470.07 C-150.02 470.1 -169.82 470.11 -189.62 470.13 C-198.81 470.13 -208.01 470.14 -217.2 470.15 C-225.21 470.16 -233.22 470.17 -241.23 470.17 C-245.47 470.17 -249.72 470.17 -253.96 470.18 C-257.95 470.19 -261.94 470.19 -265.93 470.19 C-267.4 470.19 -268.87 470.19 -270.34 470.19 C-272.33 470.2 -274.33 470.2 -276.32 470.19 C-277.44 470.19 -278.56 470.2 -279.72 470.2 C-282.22 470.07 -282.22 470.07 -283.22 469.07 C-283.32 466.65 -283.35 464.26 -283.35 461.84 C-283.35 461.07 -283.35 460.3 -283.35 459.5 C-283.36 456.89 -283.36 454.28 -283.36 451.66 C-283.36 449.78 -283.36 447.9 -283.36 446.02 C-283.37 440.83 -283.37 435.64 -283.38 430.45 C-283.38 424.86 -283.38 419.27 -283.39 413.68 C-283.41 401.45 -283.41 389.22 -283.42 376.99 C-283.42 369.36 -283.42 361.73 -283.43 354.1 C-283.44 332.99 -283.45 311.89 -283.45 290.78 C-283.45 289.42 -283.45 288.05 -283.45 286.69 C-283.45 285.32 -283.45 283.95 -283.45 282.58 C-283.45 279.83 -283.46 277.09 -283.46 274.34 C-283.46 273.66 -283.46 272.98 -283.46 272.28 C-283.46 250.19 -283.48 228.1 -283.5 206.01 C-283.52 182.67 -283.54 159.33 -283.54 135.99 C-283.54 123.27 -283.54 110.54 -283.56 97.81 C-283.58 86.97 -283.58 76.14 -283.58 65.3 C-283.57 59.77 -283.57 54.23 -283.59 48.7 C-283.6 43.64 -283.6 38.58 -283.59 33.52 C-283.58 31.69 -283.59 29.85 -283.6 28.01 C-283.61 25.53 -283.6 23.05 -283.59 20.56 C-283.59 19.84 -283.6 19.11 -283.61 18.37 C-283.58 15.48 -283.54 13.54 -281.86 11.13 C-279.33 9.5 -277.18 9.71 -274.2 9.71 C-272.31 9.71 -272.31 9.71 -270.39 9.7 C-268.99 9.71 -267.59 9.72 -266.2 9.73 C-264.73 9.73 -263.26 9.73 -261.79 9.73 C-257.8 9.73 -253.81 9.75 -249.82 9.77 C-245.66 9.79 -241.49 9.79 -237.32 9.79 C-229.43 9.8 -221.53 9.83 -213.64 9.86 C-204.65 9.89 -195.66 9.91 -186.68 9.92 C-168.19 9.95 -149.7 10.01 -131.22 10.07 C-129.88 12.74 -130.06 14.8 -130.03 17.78 C-130 19.57 -130 19.57 -129.98 21.4 C-129.95 23.34 -129.95 23.34 -129.93 25.32 C-129.92 26.66 -129.9 28 -129.88 29.34 C-129.81 34.3 -129.75 39.27 -129.69 44.24 C-129.64 48.44 -129.58 52.63 -129.52 56.83 C-129.5 58.8 -129.48 60.78 -129.46 62.75 C-129.43 64.54 -129.43 64.54 -129.4 66.37 C-129.39 67.43 -129.38 68.48 -129.37 69.57 C-129.38 72.07 -129.38 72.07 -128.22 74.07 C-127.6 73.19 -126.98 72.31 -126.34 71.4 C-100.69 34.93 -67.98 10.31 -23.41 1.94 C-15.57 0.59 -7.93 0.18 0 0 Z " fill="#EEF2F3" transform="translate(837.21533203125,483.92626953125)"/>
<path d="M0 0 C1.1 0 2.21 0 3.35 0.01 C4.61 0 5.88 0 7.18 -0 C8.59 0 10 0.01 11.41 0.02 C12.89 0.02 14.36 0.02 15.84 0.02 C19.86 0.02 23.88 0.03 27.9 0.04 C32.1 0.06 36.3 0.06 40.5 0.06 C48.45 0.07 56.41 0.08 64.36 0.1 C73.42 0.12 82.47 0.14 91.53 0.15 C110.15 0.17 128.78 0.2 147.41 0.25 C148.92 3.25 148.55 6.35 148.53 9.64 C148.54 10.42 148.54 11.2 148.54 12 C148.54 14.62 148.54 17.25 148.53 19.87 C148.53 21.76 148.53 23.66 148.53 25.55 C148.54 30.76 148.53 35.98 148.53 41.2 C148.52 46.82 148.52 52.44 148.53 58.05 C148.53 67.79 148.52 77.54 148.52 87.28 C148.51 101.36 148.51 115.45 148.51 129.53 C148.5 152.38 148.5 175.23 148.49 198.08 C148.48 220.28 148.47 242.48 148.47 264.68 C148.47 265.36 148.47 266.05 148.47 266.75 C148.46 273.62 148.46 280.49 148.46 287.36 C148.45 344.99 148.43 402.62 148.41 460.25 C128.61 460.27 108.81 460.29 89.01 460.3 C79.81 460.3 70.62 460.31 61.43 460.32 C53.42 460.33 45.41 460.34 37.4 460.34 C33.15 460.34 28.91 460.34 24.67 460.35 C20.68 460.36 16.69 460.36 12.7 460.36 C11.23 460.36 9.76 460.36 8.29 460.37 C6.3 460.37 4.3 460.37 2.3 460.37 C1.18 460.37 0.06 460.37 -1.09 460.37 C-3.59 460.25 -3.59 460.25 -4.59 459.25 C-4.69 456.82 -4.72 454.42 -4.72 451.99 C-4.72 450.83 -4.72 450.83 -4.72 449.65 C-4.73 447.03 -4.72 444.41 -4.72 441.79 C-4.72 439.91 -4.73 438.02 -4.73 436.14 C-4.74 430.93 -4.74 425.73 -4.73 420.52 C-4.73 414.92 -4.74 409.32 -4.74 403.72 C-4.75 392.73 -4.76 381.74 -4.76 370.76 C-4.76 361.83 -4.76 352.91 -4.76 343.98 C-4.77 322.83 -4.77 301.67 -4.77 280.51 C-4.77 279.83 -4.77 279.16 -4.77 278.46 C-4.77 275.03 -4.77 271.59 -4.77 268.16 C-4.77 267.48 -4.77 266.8 -4.77 266.1 C-4.77 264.72 -4.77 263.34 -4.77 261.96 C-4.77 240.5 -4.78 219.05 -4.79 197.59 C-4.81 173.51 -4.82 149.43 -4.82 125.34 C-4.82 112.58 -4.82 99.82 -4.83 87.06 C-4.84 76.2 -4.84 65.34 -4.84 54.47 C-4.83 48.93 -4.83 43.38 -4.84 37.83 C-4.85 32.76 -4.85 27.69 -4.84 22.62 C-4.84 20.78 -4.84 18.94 -4.84 17.09 C-4.85 14.6 -4.85 12.12 -4.84 9.63 C-4.84 8.9 -4.85 8.17 -4.85 7.42 C-4.8 0.46 -4.8 0.46 0 0 Z " fill="#EEF2F3" transform="translate(321.58870124816895,493.75390434265137)"/>
<path d="M0 0 C16.94 15.36 25.78 34.28 27.37 57.07 C28.32 78.06 21.99 97.2 8.41 113.18 C-6.82 129.58 -26.92 138.47 -49.29 139.35 C-72.62 139.82 -72.62 139.82 -83.53 137.24 C-84.55 137 -85.58 136.77 -86.63 136.53 C-105.76 131.44 -123.03 118.98 -133.53 102.24 C-139.62 91.1 -144.05 79 -144.53 66.24 C-144.57 65.46 -144.61 64.69 -144.65 63.89 C-145.25 42.42 -137.09 22.28 -123.31 5.98 C-117.73 0.48 -111.19 -3.68 -104.53 -7.76 C-103.67 -8.3 -102.8 -8.83 -101.91 -9.39 C-71.53 -26.23 -26.45 -22.22 0 0 Z " fill="#EEF2F3" transform="translate(452.53125,291.76171875)"/>
<path d="M0 0 C0.66 0.33 1.32 0.66 2 1 C1.01 1.66 0.02 2.32 -1 3 C-0.67 2.01 -0.34 1.02 0 0 Z " fill="#007AB9" transform="translate(134,243)"/>
<path d="M0 0 C0.66 0.33 1.32 0.66 2 1 C1.01 1.66 0.02 2.32 -1 3 C-0.67 2.01 -0.34 1.02 0 0 Z " fill="#007AB9" transform="translate(159,213)"/>
<path d="M0 0 C3 1 3 1 3 1 Z " fill="#FAFDFF" transform="translate(556,1275)"/>
<path d="M0 0 C3 1 3 1 3 1 Z " fill="#FAFDFF" transform="translate(754,1270)"/>
<path d="M0 0 C3 1 3 1 3 1 Z " fill="#FAFDFF" transform="translate(523,1270)"/>
<path d="" fill="#FAFDFF" transform="translate(0,0)"/>
<path d="" fill="#FAFDFF" transform="translate(0,0)"/>
<path d="M0 0 C2 1 2 1 2 1 Z " fill="#FAFDFF" transform="translate(779,1265)"/>
<path d="M0 0 C2 1 2 1 2 1 Z " fill="#FAFDFF" transform="translate(499,1265)"/>
<path d="" fill="#FAFDFF" transform="translate(0,0)"/>
<path d="" fill="#FAFDFF" transform="translate(0,0)"/>
<path d="" fill="#FAFDFF" transform="translate(0,0)"/>
<path d="" fill="#FAFDFF" transform="translate(0,0)"/>
<path d="" fill="#FAFDFF" transform="translate(0,0)"/>
<path d="" fill="#007AB9" transform="translate(0,0)"/>
<path d="" fill="#FAFDFF" transform="translate(0,0)"/>
<path d="" fill="#FAFDFF" transform="translate(0,0)"/>
<path d="" fill="#007AB9" transform="translate(0,0)"/>
<path d="" fill="#007AB9" transform="translate(0,0)"/>
<path d="" fill="#EEF2F3" transform="translate(0,0)"/>
<path d="" fill="#EEF2F3" transform="translate(0,0)"/>
<path d="" fill="#007AB9" transform="translate(0,0)"/>
<path d="" fill="#007AB9" transform="translate(0,0)"/>
<path d="" fill="#007AB9" transform="translate(0,0)"/>
<path d="" fill="#007AB9" transform="translate(0,0)"/>
<path d="" fill="#007AB9" transform="translate(0,0)"/>
<path d="" fill="#007AB9" transform="translate(0,0)"/>
<path d="" fill="#007AB9" transform="translate(0,0)"/>
<path d="" fill="#007AB9" transform="translate(0,0)"/>
<path d="" fill="#FAFDFF" transform="translate(0,0)"/>
<path d="" fill="#007AB9" transform="translate(0,0)"/>
<path d="" fill="#007AB9" transform="translate(0,0)"/>
<path d="" fill="#007AB9" transform="translate(0,0)"/>
<path d="" fill="#007AB9" transform="translate(0,0)"/>
<path d="" fill="#007AB9" transform="translate(0,0)"/>
<path d="" fill="#007AB9" transform="translate(0,0)"/>
<path d="" fill="#FAFDFF" transform="translate(0,0)"/>
<path d="" fill="#007AB9" transform="translate(0,0)"/>
<path d="" fill="#007AB9" transform="translate(0,0)"/>
<path d="" fill="#007AB9" transform="translate(0,0)"/>
<path d="" fill="#007AB9" transform="translate(0,0)"/>
<path d="" fill="#007AB9" transform="translate(0,0)"/>
<path d="" fill="#007AB9" transform="translate(0,0)"/>
<path d="" fill="#007AB9" transform="translate(0,0)"/>
<path d="" fill="#007AB9" transform="translate(0,0)"/>
<path d="" fill="#007AB9" transform="translate(0,0)"/>
<path d="" fill="#007AB9" transform="translate(0,0)"/>
<path d="" fill="#007AB9" transform="translate(0,0)"/>
<path d="" fill="#FAFDFF" transform="translate(0,0)"/>
<path d="" fill="#007AB9" transform="translate(0,0)"/>
<path d="" fill="#007AB9" transform="translate(0,0)"/>
<path d="" fill="#007AB9" transform="translate(0,0)"/>
<path d="" fill="#007AB9" transform="translate(0,0)"/>
<path d="" fill="#007AB9" transform="translate(0,0)"/>
<path d="" fill="#007AB9" transform="translate(0,0)"/>
<path d="" fill="#007AB9" transform="translate(0,0)"/>
<path d="" fill="#007AB9" transform="translate(0,0)"/>
<path d="" fill="#007AB9" transform="translate(0,0)"/>
<path d="" fill="#007AB9" transform="translate(0,0)"/>
<path d="" fill="#007AB9" transform="translate(0,0)"/>
<path d="" fill="#007AB9" transform="translate(0,0)"/>
<path d="" fill="#007AB9" transform="translate(0,0)"/>
<path d="" fill="#007AB9" transform="translate(0,0)"/>
<path d="" fill="#007AB9" transform="translate(0,0)"/>
<path d="" fill="#007AB9" transform="translate(0,0)"/>
<path d="" fill="#007AB9" transform="translate(0,0)"/>
<path d="" fill="#007AB9" transform="translate(0,0)"/>
</svg>
