<?xml version="1.0" standalone="no"?>
<!DOCTYPE svg PUBLIC "-//W3C//DTD SVG 20010904//EN"
 "http://www.w3.org/TR/2001/REC-SVG-20010904/DTD/svg10.dtd">
<svg version="1.0" xmlns="http://www.w3.org/2000/svg"
 width="360.000000pt" height="360.000000pt" viewBox="0 0 360.000000 360.000000"
 preserveAspectRatio="xMidYMid meet">

<g transform="translate(0.000000,360.000000) scale(0.100000,-0.100000)"
fill="#000000" stroke="none">
<path d="M1809 3444 c6 -12 7 -25 3 -28 -4 -4 1 -12 11 -18 14 -8 16 -13 6
-24 -10 -12 -9 -13 6 -7 15 5 17 3 12 -11 -4 -9 -3 -15 2 -12 5 3 16 -5 24
-17 18 -28 84 -97 93 -97 3 0 -17 26 -46 57 -29 31 -59 72 -68 90 -9 18 -20
33 -24 33 -5 0 -7 4 -4 9 3 4 -1 17 -10 27 -14 18 -15 18 -5 -2z"/>
<path d="M1991 3177 c-13 -21 -12 -21 5 -5 10 10 16 20 13 22 -3 3 -11 -5 -18
-17z"/>
<path d="M2020 3162 c0 -4 9 -15 20 -25 11 -9 20 -24 20 -32 0 -8 5 -15 11
-15 5 0 7 -4 4 -10 -4 -6 1 -7 11 -3 16 6 16 7 0 18 -9 7 -16 17 -16 22 0 5
-11 19 -25 31 -14 12 -25 18 -25 14z"/>
<path d="M2097 3059 c7 -7 15 -10 18 -7 3 3 -2 9 -12 12 -14 6 -15 5 -6 -5z"/>
<path d="M1822 3020 c0 -14 2 -19 5 -12 2 6 2 18 0 25 -3 6 -5 1 -5 -13z"/>
<path d="M2121 3023 c8 -10 19 -21 24 -25 6 -4 6 -8 1 -8 -5 0 -2 -8 7 -17 8
-10 16 -21 16 -26 0 -4 8 -18 17 -32 9 -13 12 -30 8 -37 -4 -7 -4 -10 1 -6 4
4 15 2 23 -5 12 -9 11 -4 -3 23 -10 19 -22 38 -27 41 -5 3 -8 8 -7 10 6 8 -45
88 -59 94 -13 5 -13 3 -1 -12z"/>
<path d="M1873 3011 c0 -11 5 -18 9 -15 4 3 5 11 1 19 -7 21 -12 19 -10 -4z"/>
<path d="M1822 2925 c0 -16 2 -22 5 -12 2 9 2 23 0 30 -3 6 -5 -1 -5 -18z"/>
<path d="M1823 2850 c0 -25 2 -35 4 -22 2 12 2 32 0 45 -2 12 -4 2 -4 -23z"/>
<path d="M1880 2876 c0 -2 8 -10 18 -17 15 -13 16 -12 3 4 -13 16 -21 21 -21
13z"/>
<path d="M1936 2858 c3 -5 10 -6 15 -3 13 9 11 12 -6 12 -8 0 -12 -4 -9 -9z"/>
<path d="M2235 2820 c9 -16 13 -30 11 -30 -3 0 3 -19 14 -42 10 -23 16 -46 13
-52 -4 -5 -1 -6 7 -1 10 6 12 4 7 -8 -4 -11 -1 -17 7 -17 9 0 12 7 9 20 -3 11
-8 20 -12 20 -4 0 -8 10 -8 22 -1 13 -7 24 -13 26 -5 2 -8 8 -4 13 3 5 0 9 -6
9 -6 0 -9 4 -5 9 7 12 -15 61 -27 61 -5 0 -2 -13 7 -30z"/>
<path d="M1316 2773 c-6 -14 -5 -15 5 -6 7 7 10 15 7 18 -3 3 -9 -2 -12 -12z"/>
<path d="M1280 2669 c-7 -11 -10 -23 -7 -25 2 -2 9 7 15 21 14 30 7 33 -8 4z"/>
<path d="M2253 2675 c0 -8 4 -12 9 -9 5 3 6 10 3 15 -9 13 -12 11 -12 -6z"/>
<path d="M2026 2661 c-4 -5 -2 -12 3 -15 5 -4 12 -2 15 3 4 5 2 12 -3 15 -5 4
-12 2 -15 -3z"/>
<path d="M1839 2643 c-13 -16 -12 -17 4 -4 9 7 17 15 17 17 0 8 -8 3 -21 -13z"/>
<path d="M2217 2639 c-9 -6 -17 -6 -17 -2 0 4 -5 1 -10 -7 -7 -11 -10 -11 -10
-2 0 7 -4 11 -8 8 -10 -6 -8 -79 3 -95 3 -6 12 -11 18 -10 9 0 8 2 -1 6 -6 2
-10 9 -6 14 3 5 1 9 -4 9 -5 0 -7 11 -5 25 5 23 38 44 51 31 13 -14 8 -32 -9
-32 -23 0 -25 13 -4 19 11 4 10 4 -2 3 -18 -2 -19 -7 -11 -76 2 -20 -1 -25
-17 -23 -20 1 -20 1 -1 -13 19 -14 19 -14 -3 -14 -12 0 -19 4 -16 10 3 6 0 10
-7 10 -10 0 -10 2 1 9 7 5 9 11 4 14 -5 4 -9 16 -8 29 1 13 -2 28 -7 35 -5 7
-5 14 2 18 6 3 8 11 4 16 -3 5 -10 6 -16 3 -12 -8 -49 -15 -85 -17 -17 -1 -23
-7 -23 -25 0 -13 4 -20 10 -17 6 3 10 12 10 19 0 7 7 13 15 13 8 0 15 -5 15
-10 0 -5 11 -2 25 7 14 9 24 13 23 9 -1 -4 3 -18 10 -30 8 -15 9 -29 2 -47 -6
-17 -6 -26 0 -26 6 0 10 -7 10 -16 0 -14 -3 -14 -16 -3 -9 7 -14 22 -11 35 3
15 0 21 -9 17 -7 -2 -10 -11 -7 -19 3 -8 1 -14 -5 -14 -5 0 -12 12 -15 26 -3
19 -1 24 10 20 8 -4 11 -1 7 5 -4 7 1 9 15 4 15 -4 19 -3 16 7 -3 8 -14 14
-25 14 -10 0 -16 -4 -14 -8 3 -4 0 -8 -5 -8 -6 0 -11 5 -11 10 0 6 -4 10 -8
10 -11 0 -12 -71 -1 -93 8 -13 14 -15 29 -7 11 6 21 6 25 1 10 -17 -18 -26
-75 -24 l-55 1 50 -7 c28 -5 42 -9 33 -9 -11 -1 -18 -10 -18 -24 0 -18 -2 -20
-9 -8 -6 8 -7 18 -5 22 3 4 0 8 -5 8 -6 0 -11 -11 -11 -25 0 -22 4 -25 33 -25
17 0 27 4 21 8 -6 4 -4 13 9 25 18 18 18 17 12 -20 -4 -30 -3 -34 5 -18 8 16
9 12 6 -20 -3 -22 -2 -32 0 -22 3 9 15 18 27 18 16 1 18 2 5 6 -9 2 -15 10
-12 18 3 7 1 16 -4 19 -17 10 -1 56 22 61 52 10 96 10 96 0 0 -7 -12 -10 -30
-7 -16 2 -38 1 -47 -3 -10 -5 -21 -7 -25 -7 -5 1 -8 -10 -8 -24 0 -14 4 -23
10 -19 6 4 7 11 4 17 -5 7 -1 9 9 5 11 -4 17 -1 17 9 0 13 8 14 40 9 36 -6 40
-5 40 14 0 12 4 21 9 21 6 0 8 -9 6 -20 -3 -16 2 -20 23 -20 19 0 23 -3 14 -9
-11 -7 -10 -9 3 -14 9 -4 13 -3 10 3 -4 6 1 7 12 4 15 -6 15 -4 -2 9 -11 9
-25 17 -31 17 -15 0 -14 30 2 30 14 0 47 -47 51 -72 2 -10 -2 -18 -8 -18 -5 0
-7 5 -3 11 4 7 1 10 -6 7 -17 -5 -22 -39 -7 -37 35 4 40 -1 22 -21 -10 -11
-20 -18 -23 -15 -7 6 -32 -15 -32 -26 0 -5 5 -9 11 -9 5 0 7 5 4 10 -3 6 5 10
19 10 13 0 27 6 29 13 4 9 6 9 6 -1 1 -8 -8 -16 -20 -19 -14 -4 -18 -11 -13
-22 14 -34 15 -59 3 -66 -9 -6 -11 -3 -6 9 8 21 -8 56 -26 56 -8 0 -9 -2 -1
-8 6 -4 11 -33 10 -69 -1 -34 1 -70 5 -80 5 -12 8 -7 8 19 1 20 5 39 10 43 6
3 7 -9 4 -31 -4 -26 -3 -35 5 -30 6 3 13 2 17 -4 3 -5 -1 -10 -9 -10 -10 0
-13 -6 -9 -17 4 -11 3 -14 -5 -9 -7 4 -12 3 -12 -3 0 -5 6 -11 13 -14 6 -3 3
-5 -9 -4 -16 1 -20 6 -16 22 4 20 4 20 -11 1 -14 -19 -12 -38 8 -88 4 -10 3
-18 -3 -18 -5 0 -13 12 -17 27 -3 15 -9 23 -13 17 -4 -5 -15 -15 -25 -23 -15
-12 -17 -12 -11 3 3 9 1 16 -5 16 -11 0 -15 -14 -11 -35 1 -5 -4 -4 -11 3 -16
15 -29 16 -29 1 0 -5 5 -7 10 -4 17 10 11 -7 -7 -22 -18 -15 -17 -15 32 2 19
6 19 6 3 -8 -10 -8 -18 -23 -19 -33 0 -13 -2 -14 -6 -5 -8 19 -41 51 -53 51
-5 0 -10 -6 -10 -14 0 -8 -8 -17 -17 -19 -15 -4 -15 -5 2 -6 11 -1 26 -5 33
-10 10 -6 9 -10 -7 -14 -12 -3 -19 -2 -16 3 3 4 -4 10 -15 13 -11 3 -20 1 -20
-4 0 -5 5 -9 10 -9 6 0 10 -4 10 -8 0 -5 -7 -9 -15 -9 -8 0 -15 8 -15 17 0 9
-9 16 -22 17 -22 2 -22 1 -5 -12 16 -12 13 -14 -33 -24 -62 -13 -60 -13 -60 0
0 6 6 9 13 6 24 -9 51 10 63 44 8 21 13 27 13 15 1 -11 4 -16 8 -12 11 10 12
36 2 36 -5 0 -5 10 1 24 8 22 5 26 -21 35 -16 5 -29 15 -29 22 0 9 4 8 15 -1
8 -6 24 -9 37 -5 16 4 19 3 10 -3 -11 -8 -11 -10 1 -15 9 -3 17 2 20 14 3 10
12 19 21 19 18 0 20 -8 6 -30 -8 -12 -10 -12 -10 -1 0 8 -2 12 -5 9 -3 -3 -2
-13 1 -22 5 -14 9 -15 15 -4 13 20 12 -8 -1 -33 -7 -13 -7 -19 0 -19 5 0 10 5
10 10 0 7 6 7 19 0 26 -14 31 -13 25 5 -4 8 -10 13 -14 10 -5 -3 -11 -1 -15 5
-3 5 0 10 7 10 9 1 7 5 -4 14 -22 16 -23 26 -3 26 8 0 15 -4 15 -10 0 -5 9
-10 21 -10 11 0 17 -4 14 -10 -3 -5 -2 -10 3 -10 6 0 13 7 16 15 4 13 10 14
26 5 13 -7 20 -7 20 0 0 5 -7 10 -15 10 -8 0 -15 6 -15 13 0 8 -3 7 -10 -3 -5
-8 -12 -11 -16 -7 -4 3 -1 13 6 22 16 19 3 20 -15 1 -8 -7 -11 -16 -8 -20 4
-3 3 -6 -1 -6 -15 0 -34 27 -33 45 1 10 -5 20 -13 22 -10 3 -11 2 -3 -4 18
-13 2 -28 -33 -30 -21 -2 -31 2 -31 12 0 10 8 13 26 10 24 -5 24 -4 -3 6 -15
6 -24 14 -18 18 5 3 12 16 16 29 6 19 4 22 -19 22 -18 0 -25 -4 -22 -12 2 -7
0 -22 -5 -33 -8 -19 -8 -19 -4 1 4 22 -9 53 -18 44 -9 -9 11 -75 21 -73 6 1 9
-6 6 -17 -4 -16 -7 -17 -19 -5 -8 7 -14 20 -15 27 0 7 -5 2 -10 -11 -12 -31
-3 -57 21 -64 11 -3 20 -11 20 -19 0 -8 -3 -9 -8 -2 -18 26 -109 35 -123 12
-4 -5 -9 -3 -12 6 -4 10 -12 13 -23 9 -13 -5 -16 -3 -11 10 3 9 2 19 -2 21
-16 10 -6 -34 13 -55 15 -18 15 -21 3 -16 -9 3 -19 2 -22 -3 -4 -6 -2 -10 4
-10 5 0 16 -3 25 -6 9 -3 16 -1 16 6 0 18 27 40 50 40 12 0 18 -4 15 -10 -3
-5 1 -10 10 -10 9 0 13 4 10 10 -3 6 1 7 10 3 13 -5 14 -7 3 -14 -7 -5 -19 -9
-26 -9 -19 0 -48 -30 -30 -30 10 0 9 -3 -2 -10 -8 -5 -19 -10 -25 -10 -5 0 -4
4 3 9 11 7 11 9 -1 14 -22 8 -15 -23 8 -35 13 -8 16 -7 11 1 -4 6 -2 11 3 11
6 0 11 -7 11 -15 0 -8 -6 -15 -13 -15 -15 0 -57 36 -57 49 0 5 -9 11 -20 14
-11 3 -20 1 -20 -4 0 -5 7 -9 15 -9 8 0 15 -5 15 -10 0 -6 -6 -9 -12 -8 -19 4
-11 -44 9 -59 9 -7 13 -16 10 -20 -4 -3 -7 -3 -7 1 0 4 -9 2 -20 -4 -14 -7
-20 -7 -20 0 0 5 5 10 10 10 6 0 10 5 10 11 0 5 -5 7 -11 3 -7 -4 -10 -1 -7 7
3 8 1 22 -4 32 -6 11 -5 17 3 17 8 0 8 4 -1 14 -9 12 -7 18 9 32 15 13 18 21
10 31 -6 7 -16 10 -23 6 -8 -5 -8 -3 1 8 7 9 10 52 9 119 -2 93 0 107 17 123
18 15 16 21 -4 19 -4 -1 -9 8 -12 18 -3 11 -1 18 4 14 5 -3 9 0 9 5 0 6 -8 11
-17 11 -15 0 -15 2 -4 9 8 5 11 16 8 24 -3 9 1 18 9 21 20 8 24 8 23 -1 -7
-42 19 -54 66 -32 15 7 11 8 -18 5 -33 -4 -36 -3 -22 10 9 9 24 13 37 10 13
-3 18 -3 11 0 -7 3 -9 12 -6 20 3 8 0 14 -7 14 -6 0 -8 -5 -4 -11 5 -9 -1 -10
-22 -4 -36 9 -44 9 -69 0 -19 -8 -18 -7 2 11 15 14 19 24 12 35 -6 10 -9 10
-9 2 0 -7 -5 -13 -12 -13 -6 0 -4 7 5 18 24 26 21 44 -5 40 -13 -2 -22 -9 -21
-16 2 -6 3 -89 4 -184 1 -111 6 -178 13 -187 8 -11 8 -13 -1 -8 -8 5 -11 -24
-10 -111 0 -65 -3 -124 -8 -132 -5 -9 -4 -11 3 -6 7 4 12 1 12 -8 0 -8 -4 -16
-9 -18 -5 -1 -11 -58 -13 -125 -2 -79 0 -119 7 -116 6 3 4 0 -2 -8 -13 -14
-18 -121 -6 -132 3 -4 8 -29 9 -56 1 -27 10 -63 18 -79 9 -17 16 -38 16 -48 0
-10 5 -14 15 -10 8 3 14 0 12 -6 -6 -29 27 -13 88 45 43 39 66 68 61 75 -12
20 -24 13 -19 -10 3 -13 2 -20 -2 -16 -15 14 -14 78 0 78 8 0 17 -5 21 -12 5
-8 10 -6 15 8 7 17 8 17 8 2 2 -34 27 -17 77 50 56 73 99 142 90 142 -3 0 6
17 20 37 13 20 22 43 19 50 -2 8 -1 12 4 9 17 -11 21 25 4 50 -9 14 -12 24 -7
23 22 -4 25 2 7 19 -10 9 -14 14 -9 10 14 -11 28 -10 22 1 -3 5 1 12 9 15 13
4 14 2 5 -14 -6 -11 -7 -20 -3 -20 4 0 2 -5 -5 -12 -14 -14 -16 -28 -3 -28 5
0 19 28 30 62 23 67 25 82 13 74 -4 -2 -9 5 -9 17 -2 17 0 18 7 7 12 -19 14
-15 27 45 8 34 8 52 1 56 -7 4 -6 8 2 11 15 5 32 180 24 238 -3 19 -7 58 -8
85 -2 28 -5 52 -6 55 -1 3 -1 15 0 27 1 14 -8 28 -24 39 -14 9 -26 21 -26 26
0 5 7 2 16 -7 9 -9 19 -13 23 -9 3 4 1 9 -6 11 -7 2 -9 11 -6 20 5 12 3 14 -8
8 -11 -7 -11 -5 1 10 14 17 13 18 -2 12 -10 -3 -20 -1 -24 5 -4 6 -3 8 4 4 16
-10 26 14 12 27 -10 9 -11 9 -6 0 4 -7 2 -13 -3 -13 -14 0 -14 13 0 27 17 17
-7 53 -34 51 -20 -2 -23 -8 -24 -48 0 -25 -2 -51 -4 -59 -2 -7 2 -16 9 -18 7
-3 12 -1 11 4 -3 19 2 33 12 33 5 0 8 -4 5 -9 -4 -5 -2 -11 4 -13 5 -1 -6 -13
-24 -25 l-34 -22 5 73 c6 76 0 91 -30 75z m70 -61 c-3 -8 -6 -5 -6 6 -1 11 2
17 5 13 3 -3 4 -12 1 -19z m-53 -23 c-4 -8 -7 -15 -9 -15 -2 0 -5 7 -9 15 -3
9 0 15 9 15 9 0 12 -6 9 -15z m-145 -70 c0 -5 -4 -3 -9 5 -5 8 -9 22 -9 30 0
16 17 -16 18 -35z m141 10 c0 -8 -4 -15 -10 -15 -5 0 -7 7 -4 15 4 8 8 15 10
15 2 0 4 -7 4 -15z m-380 -5 c0 -5 -2 -10 -4 -10 -3 0 -8 5 -11 10 -3 6 -1 10
4 10 6 0 11 -4 11 -10z m244 -335 c-4 -8 -8 -15 -10 -15 -2 0 -4 7 -4 15 0 8
4 15 10 15 5 0 7 -7 4 -15z m242 -133 c-10 -10 -29 15 -21 28 6 9 10 8 17 -4
6 -10 7 -20 4 -24z m-50 -27 c-5 -19 -3 -23 9 -19 12 5 15 0 13 -24 -2 -29
-27 -39 -36 -14 -4 12 -33 4 -45 -12 -5 -7 -7 -3 -5 9 2 12 11 19 22 18 11 0
15 4 12 13 -3 8 0 14 6 14 6 0 8 3 5 7 -7 6 10 33 20 33 3 0 2 -11 -1 -25z
m60 -4 c0 -11 -6 -17 -13 -14 -6 3 -9 11 -6 19 7 20 19 17 19 -5z m-306 -26
c0 -5 -5 -3 -10 5 -5 8 -10 10 -10 5 0 -6 -10 -11 -22 -12 -13 0 -17 1 -9 4
11 5 11 7 0 15 -10 6 -7 7 9 3 15 -4 22 -2 22 7 0 10 3 9 10 -2 5 -8 10 -19
10 -25z m294 -10 c3 -8 1 -15 -4 -15 -6 0 -10 7 -10 15 0 8 2 15 4 15 2 0 6
-7 10 -15z m-420 -45 c-3 -2 -9 2 -14 10 -9 13 -10 13 -10 0 0 -13 -1 -13 -10
0 -13 21 11 33 26 12 7 -9 10 -19 8 -22z m116 25 c0 -8 -4 -15 -10 -15 -5 0
-7 7 -4 15 4 8 8 15 10 15 2 0 4 -7 4 -15z m-80 -40 c0 -8 -4 -15 -10 -15 -5
0 -10 7 -10 15 0 8 5 15 10 15 6 0 10 -7 10 -15z m313 -138 c3 -8 -1 -14 -8
-14 -7 0 -11 6 -8 14 3 7 6 13 8 13 2 0 5 -6 8 -13z m-426 -39 c-3 -7 -5 -2
-5 12 0 14 2 19 5 13 2 -7 2 -19 0 -25z m353 -42 c0 -2 -8 -10 -17 -17 -16
-13 -17 -12 -4 4 13 16 21 21 21 13z m34 -31 c-9 -6 -14 -16 -11 -22 3 -5 0
-10 -8 -10 -19 0 -19 11 0 27 8 7 12 16 9 21 -3 5 2 6 11 3 14 -6 14 -8 -1
-19z m-24 11 c0 -2 -8 -10 -17 -17 -16 -13 -17 -12 -4 4 13 16 21 21 21 13z
m1 -63 c2 1 -1 -3 -8 -9 -7 -6 -11 -13 -8 -16 3 -2 -2 -5 -10 -5 -11 0 -12 4
-5 11 14 14 13 29 -2 20 -7 -4 -8 -3 -4 5 6 8 12 9 20 2 7 -6 15 -10 17 -8z
m-57 -88 c-4 -8 -10 -15 -16 -15 -5 0 -7 -4 -4 -9 3 -5 -1 -11 -9 -14 -10 -4
-12 -1 -8 10 4 10 2 14 -4 10 -5 -3 -10 0 -10 8 0 7 8 12 19 10 10 -2 18 0 18
6 0 5 4 9 10 9 5 0 7 -7 4 -15z m-199 -153 c-3 -3 0 -11 5 -17 8 -9 6 -14 -4
-18 -11 -4 -13 -1 -9 10 4 10 2 14 -4 10 -5 -3 -10 0 -10 7 0 7 6 13 14 13 7
0 11 -3 8 -5z m33 -39 c-6 -7 -16 -13 -22 -13 -6 0 -4 5 6 10 10 6 15 19 12
32 -4 21 -4 21 5 3 5 -12 5 -25 -1 -32z m-103 7 c3 -5 1 -10 -4 -10 -6 0 -11
5 -11 10 0 6 2 10 4 10 3 0 8 -4 11 -10z m22 -32 c-3 -8 -6 -5 -6 6 -1 11 2
17 5 13 3 -3 4 -12 1 -19z"/>
<path d="M2270 1965 c0 -5 4 -16 9 -23 6 -11 10 -10 15 4 3 9 4 19 1 22 -3 3
-5 -1 -5 -9 0 -11 -2 -11 -10 1 -5 8 -10 11 -10 5z"/>
<path d="M2002 2601 c-7 -4 -26 -7 -42 -6 -17 1 -30 -2 -30 -7 0 -5 -4 -7 -9
-3 -5 3 -13 0 -16 -6 -5 -7 0 -9 12 -7 18 3 23 -1 23 -17 0 -2 -11 0 -24 5
-13 5 -26 6 -29 3 -8 -7 3 -33 15 -33 5 0 6 5 3 10 -3 6 -1 10 4 10 19 0 12
-30 -6 -31 -17 0 -17 -1 -1 -7 13 -5 15 -11 8 -22 -7 -10 -10 -11 -10 -2 0 17
-17 15 -24 -4 -5 -12 0 -15 22 -12 21 2 27 8 26 26 -1 17 4 22 22 22 19 0 23
-4 20 -22 -2 -14 -10 -22 -20 -22 -9 1 -16 -2 -16 -7 0 -14 48 -11 53 4 3 6 6
7 6 2 1 -16 71 -5 71 11 0 7 -5 16 -10 19 -7 4 -7 12 0 25 13 23 13 30 0 30
-16 0 -23 -49 -10 -65 10 -12 9 -15 -9 -15 -16 0 -21 6 -21 24 0 14 5 28 10
31 6 3 10 11 10 16 0 6 -4 8 -8 5 -5 -3 -6 8 -4 25 5 31 4 33 -16 20z m8 -15
c0 -3 -4 -8 -10 -11 -5 -3 -10 -1 -10 4 0 6 5 11 10 11 6 0 10 -2 10 -4z m-32
-18 c-2 -7 2 -12 8 -11 6 1 11 -4 11 -11 0 -7 -9 -13 -19 -12 -10 1 -18 4 -18
9 0 4 0 14 0 22 0 8 5 15 10 15 6 0 9 -6 8 -12z m22 -57 c0 -6 -4 -12 -8 -15
-5 -3 -9 1 -9 9 0 8 4 15 9 15 4 0 8 -4 8 -9z"/>
<path d="M1865 2580 c-3 -5 -12 -7 -20 -3 -8 3 -16 0 -16 -6 -4 -37 -2 -45 11
-48 13 -4 13 -3 0 6 -11 8 -12 11 -2 11 7 0 10 5 7 10 -3 6 -1 10 4 10 6 0 11
-9 11 -20 0 -11 4 -20 9 -20 5 0 7 8 4 19 -3 10 0 22 6 25 6 4 11 11 11 17 0
12 -17 12 -25 -1z"/>
<path d="M1251 2548 c0 -13 3 -17 6 -10 2 6 10 9 16 5 7 -4 6 1 -2 10 -18 22
-21 21 -20 -5z"/>
<path d="M2172 2524 c10 -10 20 -16 22 -13 3 3 -5 11 -17 18 -21 13 -21 12 -5
-5z"/>
<path d="M1935 2501 c-6 -11 13 -26 22 -17 4 3 0 6 -8 6 -11 0 -11 2 1 10 9 6
10 10 3 10 -6 0 -14 -4 -18 -9z"/>
<path d="M1230 2426 c0 -19 3 -37 8 -40 4 -2 6 13 4 35 -5 48 -12 51 -12 5z"/>
<path d="M1886 2446 c6 -16 44 -29 44 -15 0 5 11 9 25 9 18 0 23 -4 19 -15 -4
-8 -1 -15 5 -15 6 0 11 7 11 16 0 8 4 13 9 10 5 -3 7 -15 4 -26 -3 -11 -9 -17
-14 -14 -5 3 -9 0 -9 -5 0 -6 6 -11 13 -11 23 0 -17 -19 -55 -25 -21 -4 -38
-12 -38 -18 0 -8 -3 -7 -9 1 -7 11 -9 11 -14 -2 -4 -9 -3 -16 1 -17 86 -9 111
-8 106 6 -4 8 -10 15 -16 15 -5 0 -6 -4 -3 -10 3 -5 1 -10 -4 -10 -24 0 -9 26
20 37 17 7 28 17 24 22 -3 6 -1 11 4 11 6 0 11 11 11 25 0 26 -8 30 -77 38
-18 2 -30 0 -27 -5 3 -4 0 -8 -5 -8 -6 0 -11 5 -11 10 0 6 -4 10 -10 10 -5 0
-7 -6 -4 -14z"/>
<path d="M2190 2410 c0 -16 -4 -30 -10 -30 -5 0 -7 7 -4 15 7 17 -11 21 -22 4
-3 -6 -1 -15 6 -19 15 -9 5 -30 -14 -30 -7 0 -19 -11 -26 -25 -18 -34 -27 -32
-22 5 3 19 0 30 -7 30 -7 0 -9 5 -6 10 3 6 1 10 -5 10 -10 0 -27 -56 -22 -72
1 -5 -3 -8 -9 -8 -6 0 -9 9 -6 20 3 13 0 20 -10 20 -10 0 -13 7 -8 23 l6 22
-14 -23 c-7 -12 -17 -19 -21 -15 -4 4 -5 -9 -1 -29 5 -26 4 -38 -4 -38 -6 0
-11 -6 -11 -14 0 -10 10 -14 31 -14 16 1 25 4 19 8 -6 3 -12 16 -15 28 -2 12
-7 27 -10 32 -3 6 -2 10 3 10 11 0 26 -30 23 -47 -1 -6 4 -15 10 -19 9 -5 10
-2 6 9 -6 17 7 24 16 10 2 -5 2 -3 1 4 -2 7 2 15 7 19 7 4 9 -3 7 -16 -2 -14
-17 -30 -38 -41 l-35 -19 33 0 c24 0 31 4 26 13 -5 8 -2 7 9 -2 16 -12 20 -11
37 6 18 20 18 21 -3 32 -21 11 -21 11 3 5 15 -3 20 -2 13 3 -8 6 -9 14 -3 23
8 13 10 12 11 -2 1 -10 2 -26 3 -35 1 -10 5 -24 9 -30 5 -7 4 -13 -2 -13 -5 0
-12 6 -15 13 -3 6 -5 1 -3 -13 3 -22 -1 -26 -22 -28 -20 -1 -23 0 -11 8 13 8
12 10 -2 10 -10 0 -18 -7 -18 -16 0 -11 8 -15 28 -12 21 2 26 -1 24 -14 -2
-10 2 -18 8 -18 5 0 10 -7 10 -15 0 -18 11 -19 29 -2 11 10 13 9 8 -5 -4 -10
-2 -18 4 -18 6 0 6 -7 -1 -19 -7 -13 -7 -22 0 -26 9 -6 14 1 11 18 -2 16 47 6
55 -12 8 -18 10 -18 24 -3 13 14 12 15 -3 9 -9 -3 -17 -2 -17 2 0 5 6 12 13
14 6 3 2 6 -10 6 -13 1 -23 7 -23 14 0 9 -2 9 -8 0 -6 -9 -13 -5 -26 12 -15
20 -22 23 -32 14 -10 -8 -14 -9 -14 0 0 6 5 11 11 11 6 0 9 9 6 20 -3 11 -2
18 3 15 10 -6 35 24 26 32 -4 4 -11 2 -15 -6 -7 -10 -9 -10 -14 1 -7 20 23 19
46 0 17 -15 18 -14 12 19 -4 23 -2 29 4 19 5 -8 7 -18 4 -24 -4 -5 -1 -6 7 -1
9 6 11 4 5 -5 -5 -9 -4 -11 4 -6 9 6 9 11 0 22 -9 12 -6 14 19 14 29 0 30 1
22 29 -6 22 -5 31 5 35 8 3 13 14 12 25 -1 14 -5 17 -13 10 -7 -5 -16 -9 -20
-8 -21 3 -35 -2 -29 -11 3 -5 1 -10 -6 -10 -7 0 -9 -3 -6 -6 4 -4 13 -2 20 4
10 9 14 9 15 -1 0 -6 3 -22 6 -34 2 -13 1 -23 -5 -23 -5 0 -9 8 -9 19 0 20
-36 36 -46 20 -3 -5 3 -9 14 -9 10 0 19 -7 19 -15 0 -18 -17 -20 -18 -2 0 6
-5 2 -11 -10 -6 -13 -15 -23 -20 -23 -5 0 -4 9 2 20 8 15 8 20 -1 20 -7 0 -2
11 10 24 l23 24 -21 11 c-14 8 -21 8 -21 1 0 -5 5 -10 11 -10 6 0 3 -7 -6 -16
-8 -9 -13 -24 -11 -33 3 -9 1 -23 -5 -31 -9 -12 -10 -11 -6 8 3 14 0 22 -8 22
-18 0 -26 48 -8 54 10 4 12 -1 7 -21 -5 -18 -4 -24 5 -19 6 4 11 20 11 37 0
30 10 35 39 20 24 -13 36 -2 37 37 1 37 -1 38 -24 16 -14 -15 -16 -15 -24 5
-11 30 -18 26 -18 -9z m47 -30 c2 -17 -1 -18 -18 -7 -18 11 -18 12 -1 19 9 3
17 7 17 7 1 1 1 -8 2 -19z m-151 -45 c1 -7 -4 -16 -10 -18 -9 -4 -11 3 -8 19
5 25 14 25 18 -1z m18 -80 c-4 -8 -8 -15 -10 -15 -2 0 -4 7 -4 15 0 8 4 15 10
15 5 0 7 -7 4 -15z m56 -79 c0 -11 -19 -15 -25 -6 -3 5 1 10 9 10 9 0 16 -2
16 -4z"/>
<path d="M2268 2407 c-5 -28 0 -47 13 -47 6 0 7 5 4 10 -5 9 6 14 26 12 3 -1
6 6 6 14 0 8 -4 14 -9 14 -4 0 -8 -6 -8 -12 0 -9 -3 -8 -9 2 -6 8 -7 18 -5 22
3 4 1 8 -4 8 -5 0 -12 -10 -14 -23z"/>
<path d="M1871 2374 c0 -11 3 -14 6 -6 3 7 2 16 -1 19 -3 4 -6 -2 -5 -13z"/>
<path d="M2040 2364 c0 -8 5 -12 10 -9 6 3 10 10 10 16 0 5 -4 9 -10 9 -5 0
-10 -7 -10 -16z"/>
<path d="M2330 2360 c-13 -8 -12 -10 3 -10 9 0 17 5 17 10 0 12 -1 12 -20 0z"/>
<path d="M1224 2220 c0 -63 1 -89 3 -57 2 31 2 83 0 115 -2 31 -3 5 -3 -58z"/>
<path d="M1904 2295 c-9 -21 -2 -26 13 -10 8 9 9 16 3 20 -6 3 -13 -1 -16 -10z"/>
<path d="M1932 2285 c-7 -8 -9 -15 -5 -15 4 0 1 -5 -7 -10 -12 -7 -12 -12 -2
-22 9 -9 12 -9 12 0 0 10 3 10 14 0 8 -7 12 -16 9 -20 -2 -5 0 -8 5 -8 6 0 12
7 16 15 3 10 -1 15 -12 15 -10 0 -13 3 -7 8 14 10 17 32 4 32 -5 0 -7 5 -4 10
9 15 -8 11 -23 -5z"/>
<path d="M1875 2269 c-4 -6 -1 -15 6 -20 12 -7 11 -9 -1 -9 -22 0 -22 -80 0
-80 9 0 11 -3 5 -8 -14 -10 -18 -42 -5 -42 11 0 12 4 15 63 2 30 0 35 -11 26
-18 -15 -18 -2 0 16 12 12 15 12 20 0 3 -8 3 -22 0 -30 -4 -8 -1 -15 5 -15 6
0 11 5 11 10 0 6 7 10 15 10 18 0 19 9 4 30 -9 13 -10 12 -5 -2 11 -34 -12
-18 -32 23 -13 25 -23 36 -27 28z"/>
<path d="M2290 2239 c0 -5 5 -7 10 -4 6 3 10 8 10 11 0 2 -4 4 -10 4 -5 0 -10
-5 -10 -11z"/>
<path d="M1986 2232 c-3 -6 -5 -16 -3 -24 2 -7 2 -10 0 -5 -3 4 -9 4 -15 1 -6
-4 -6 -9 3 -14 10 -7 9 -14 -5 -34 -9 -14 -12 -26 -7 -26 5 0 11 6 14 13 3 9
9 9 25 0 22 -13 39 -2 27 17 -10 16 4 48 23 53 13 4 11 5 -5 6 -20 1 -41 -30
-35 -51 1 -5 -5 -8 -13 -8 -14 0 -14 3 -1 28 14 27 7 67 -8 44z"/>
<path d="M2263 2225 c-7 -7 -18 -15 -25 -18 -7 -2 -9 -8 -5 -13 4 -5 13 -2 18
6 9 13 10 13 6 -1 -4 -12 2 -16 24 -16 20 0 25 3 17 9 -10 6 -10 10 -1 16 9 6
8 11 -5 18 -13 8 -20 8 -29 -1z"/>
<path d="M2200 2202 c0 -5 3 -12 8 -16 4 -4 7 -11 7 -14 0 -4 8 -18 18 -32 22
-31 22 -18 0 32 -15 34 -33 51 -33 30z"/>
<path d="M2180 2180 c0 -6 10 -21 21 -33 12 -12 19 -15 15 -7 -3 8 -9 23 -12
33 -7 18 -24 24 -24 7z"/>
<path d="M1918 2162 c-10 -11 -8 -13 12 -10 13 1 25 8 27 14 5 16 -25 13 -39
-4z"/>
<path d="M2240 2168 c0 -4 5 -8 10 -8 6 0 10 -9 10 -20 0 -11 4 -20 9 -20 5 0
8 12 5 28 -4 25 -3 25 10 9 12 -15 14 -16 20 -2 6 16 5 17 -36 19 -16 1 -28
-2 -28 -6z"/>
<path d="M1900 2124 c0 -9 -9 -18 -20 -21 -11 -3 -20 -10 -20 -15 0 -5 4 -7 9
-4 5 3 20 -3 34 -14 31 -25 47 -25 47 -2 0 13 -2 14 -9 3 -5 -8 -14 -10 -22
-6 -9 6 -8 10 7 15 21 8 47 -7 38 -21 -3 -5 4 -9 15 -9 14 0 21 6 21 19 0 11
2 25 5 33 7 18 -15 48 -22 31 -6 -15 -43 -17 -43 -3 0 6 -9 10 -20 10 -12 0
-20 -7 -20 -16z m33 -26 c-2 -5 -12 -8 -21 -7 -10 0 -12 3 -5 5 7 3 9 13 6 22
-6 14 -5 15 9 2 9 -8 14 -18 11 -22z m58 2 c-7 -3 -9 -15 -6 -26 6 -18 6 -18
-6 1 -7 11 -17 23 -22 26 -5 4 3 7 18 7 15 0 22 -4 16 -8z"/>
<path d="M2108 2123 c7 -3 16 -2 19 1 4 3 -2 6 -13 5 -11 0 -14 -3 -6 -6z"/>
<path d="M2286 2115 c-3 -8 -1 -15 3 -15 5 0 11 7 15 15 3 8 1 15 -3 15 -5 0
-11 -7 -15 -15z"/>
<path d="M1232 2055 c0 -16 2 -22 5 -12 2 9 2 23 0 30 -3 6 -5 -1 -5 -18z"/>
<path d="M2270 2060 c0 -5 5 -10 10 -10 6 0 10 5 10 10 0 6 -4 10 -10 10 -5 0
-10 -4 -10 -10z"/>
<path d="M2083 2012 c1 -18 37 -29 37 -11 0 6 -5 7 -12 3 -8 -5 -9 -2 -5 9 4
11 1 17 -8 17 -7 0 -13 -8 -12 -18z"/>
<path d="M1955 2010 c3 -5 -1 -10 -9 -10 -9 0 -16 -4 -16 -10 0 -14 13 -13 28
2 15 15 15 28 1 28 -5 0 -7 -4 -4 -10z"/>
<path d="M2089 1971 c11 -7 11 -9 0 -13 -10 -3 -10 -6 -1 -12 7 -4 12 -2 12 3
0 6 8 11 18 11 14 0 15 2 2 10 -8 5 -22 10 -30 10 -12 0 -13 -2 -1 -9z"/>
<path d="M1261 1930 c0 -8 4 -24 9 -35 5 -13 9 -14 9 -5 0 8 -4 24 -9 35 -5
13 -9 14 -9 5z"/>
<path d="M1336 1727 c3 -10 9 -15 12 -12 3 3 0 11 -7 18 -10 9 -11 8 -5 -6z"/>
<path d="M1375 1651 c8 -17 19 -33 25 -36 5 -3 1 10 -11 29 -25 43 -36 48 -14
7z"/>
<path d="M1430 1561 c0 -6 4 -13 10 -16 6 -3 7 1 4 9 -7 18 -14 21 -14 7z"/>
<path d="M1476 1498 c10 -14 21 -24 23 -22 3 3 -6 15 -18 27 l-24 22 19 -27z"/>
<path d="M1556 1400 c21 -22 39 -40 41 -40 2 0 -11 18 -28 40 -18 22 -36 40
-41 40 -5 0 8 -18 28 -40z"/>
<path d="M2029 1399 c18 -20 48 -18 35 2 -3 5 -9 7 -14 4 -5 -3 -11 -1 -15 5
-3 5 -11 10 -16 10 -5 0 -1 -9 10 -21z"/>
<path d="M1610 1346 c0 -2 8 -10 18 -17 15 -13 16 -12 3 4 -13 16 -21 21 -21
13z"/>
<path d="M1670 1291 c0 -6 4 -13 10 -16 6 -3 7 1 4 9 -7 18 -14 21 -14 7z"/>
<path d="M1720 1244 c0 -1 6 -7 14 -13 10 -9 15 -8 19 2 3 8 -3 13 -14 13 -11
0 -19 -1 -19 -2z"/>
<path d="M2467 796 c-5 -12 0 -16 22 -16 52 0 53 -7 52 -298 l-1 -133 -37 -22
c-35 -20 -36 -22 -13 -27 12 -3 77 -5 143 -4 119 2 212 18 201 35 -3 5 2 6 10
3 19 -7 99 66 120 111 9 19 19 62 23 96 5 51 3 61 -8 54 -11 -6 -11 -5 -2 5
28 31 -54 176 -88 154 -8 -4 -10 -3 -5 4 4 7 -7 19 -26 29 -47 26 -382 33
-391 9z m320 -29 c11 -1 19 -5 17 -8 -2 -4 7 -14 21 -23 14 -9 37 -36 52 -59
24 -37 27 -52 28 -129 1 -48 4 -90 8 -94 4 -4 7 -12 7 -18 0 -5 -6 -2 -13 8
-11 15 -14 14 -25 -18 -8 -20 -18 -36 -24 -36 -5 0 -7 -8 -4 -17 4 -10 4 -14
0 -11 -3 4 -24 -2 -46 -13 -33 -17 -53 -20 -102 -15 -33 3 -66 6 -72 7 -6 1
-11 21 -13 43 -3 64 -8 81 -21 78 -6 -1 -9 2 -5 8 3 6 11 8 16 4 7 -4 10 38 9
122 -1 71 -2 142 -1 158 l1 28 73 -6 c39 -4 82 -7 94 -9z m-206 -24 c13 -17
13 -17 -6 -3 -11 8 -22 16 -24 17 -2 2 0 3 6 3 6 0 17 -8 24 -17z m333 -73
c-6 -5 -24 21 -24 34 0 6 6 1 14 -10 8 -10 12 -21 10 -24z m15 -43 c8 -10 7
-14 -2 -14 -8 0 -14 6 -14 14 0 7 1 13 2 13 2 0 8 -6 14 -13z m-375 -305 c3
-5 -1 -9 -9 -9 -8 0 -12 4 -9 9 3 4 7 8 9 8 2 0 6 -4 9 -8z"/>
<path d="M3050 795 c0 -8 9 -15 19 -15 53 0 52 4 50 -234 l-1 -222 -28 4 c-25
4 -49 -12 -37 -24 11 -11 182 -11 189 0 5 8 8 8 8 -1 0 -14 45 -8 110 13 56
18 72 30 99 74 31 52 28 102 -10 145 -17 19 -36 35 -43 35 -6 0 -17 4 -25 9
-11 7 -7 16 22 44 40 37 48 80 24 126 -25 50 -68 61 -229 61 -125 0 -148 -2
-148 -15z m265 -24 c-2 -2 5 -11 17 -21 16 -12 23 -33 28 -73 3 -31 3 -54 0
-52 -4 2 -14 -5 -24 -16 -14 -17 -27 -19 -79 -17 l-62 3 4 85 c2 47 5 89 8 93
3 4 29 7 58 5 29 -2 52 -5 50 -7z m42 -8 c-4 -3 1 -16 10 -27 18 -21 18 -21
-4 -2 -20 16 -23 36 -6 36 4 0 3 -3 0 -7z m57 -12 c3 -5 -2 -15 -12 -22 -15
-12 -16 -12 -5 2 7 9 10 19 6 22 -3 4 -4 7 0 7 3 0 8 -4 11 -9z m-81 -204 c-4
-7 0 -8 13 -3 10 4 15 4 11 0 -3 -4 5 -20 18 -36 43 -50 30 -135 -24 -163 -39
-20 -115 -20 -135 1 -12 12 -16 38 -16 116 l0 101 66 -6 c61 -6 65 -5 52 11
-12 15 -11 16 4 3 10 -7 15 -18 11 -24z m58 6 c13 -16 12 -17 -3 -4 -10 7 -18
15 -18 17 0 8 8 3 21 -13z"/>
<path d="M1418 640 c-15 -5 -41 -18 -58 -30 l-30 -21 0 25 c0 30 3 29 -69 12
-64 -14 -73 -27 -31 -43 l31 -12 -3 -118 c-3 -114 -4 -118 -25 -121 -23 -3
-32 -27 -13 -34 5 -1 46 -2 90 0 61 3 80 7 80 18 0 8 -9 14 -20 14 -29 0 -40
37 -40 135 0 63 4 88 16 99 22 22 62 31 93 20 41 -15 51 -48 49 -154 -3 -90
-4 -95 -25 -98 -15 -2 -23 -10 -23 -23 0 -18 5 -19 83 -13 94 7 116 19 69 35
l-32 11 0 99 c0 161 -46 225 -142 199z"/>
<path d="M176 626 c-59 -14 -67 -27 -26 -43 l31 -12 -3 -117 c-3 -116 -3 -118
-27 -124 -14 -3 -26 -11 -29 -18 -3 -9 20 -12 88 -12 69 0 91 3 88 13 -3 6
-13 14 -24 16 -30 5 -34 19 -34 128 0 94 2 103 22 117 29 21 92 20 112 0 23
-23 27 -48 24 -149 -3 -85 -4 -89 -27 -95 -14 -3 -26 -11 -29 -18 -3 -9 20
-12 87 -12 94 0 112 9 64 32 -28 13 -28 15 -31 119 -3 119 1 127 65 136 29 4
44 0 63 -15 23 -19 25 -27 28 -126 l4 -106 -26 -10 c-50 -19 -28 -30 59 -30
69 0 85 3 85 15 0 8 -8 15 -18 15 -35 0 -42 21 -42 130 0 87 -3 111 -20 137
-31 52 -108 57 -171 12 l-30 -21 -29 27 c-25 24 -35 27 -74 23 -24 -3 -58 -15
-74 -27 -38 -27 -42 -26 -42 4 0 14 -3 24 -7 24 -5 -1 -30 -7 -57 -13z"/>
<path d="M892 619 c-53 -27 -83 -68 -90 -125 -17 -152 109 -246 245 -185 120
55 133 234 23 308 -44 30 -119 31 -178 2z m131 -36 c49 -44 66 -172 29 -222
-24 -32 -82 -40 -119 -16 -31 21 -62 89 -63 138 0 46 22 101 47 116 24 15 80
6 106 -16z"/>
<path d="M1733 620 c-82 -42 -96 -137 -28 -196 l35 -31 -32 -26 -33 -27 29
-25 28 -26 -41 -35 c-31 -27 -41 -43 -41 -66 0 -44 45 -85 106 -94 120 -18
234 60 234 159 0 54 -31 75 -130 88 -92 11 -100 14 -100 34 0 15 21 25 53 25
30 0 82 33 104 66 10 16 17 45 17 71 -1 37 1 43 16 38 19 -6 50 18 50 38 0 8
-20 13 -52 13 -29 1 -80 5 -113 9 -50 5 -67 3 -102 -15z m116 -36 c25 -32 28
-100 5 -132 -19 -27 -63 -29 -94 -4 -30 24 -39 102 -16 137 23 35 77 35 105
-1z m51 -319 c23 -12 30 -22 30 -46 0 -43 -15 -65 -51 -78 -82 -28 -169 9
-169 74 0 9 11 27 25 40 20 21 34 25 80 25 31 0 69 -7 85 -15z"/>
<path d="M2134 621 c-65 -30 -89 -72 -89 -158 0 -77 13 -106 69 -147 43 -32
140 -29 193 6 102 67 104 228 3 295 -42 29 -118 30 -176 4z m129 -38 c31 -28
47 -77 47 -141 0 -77 -24 -112 -79 -112 -47 0 -79 23 -102 74 -32 70 -18 168
28 195 24 15 80 6 106 -16z"/>
</g>
</svg>
