<?xml version="1.0" standalone="no"?>
<!DOCTYPE svg PUBLIC "-//W3C//DTD SVG 20010904//EN"
 "http://www.w3.org/TR/2001/REC-SVG-20010904/DTD/svg10.dtd">
<svg version="1.0" xmlns="http://www.w3.org/2000/svg"
 width="505.000000pt" height="494.000000pt" viewBox="0 0 505.000000 494.000000"
 preserveAspectRatio="xMidYMid meet">

<g transform="translate(0.000000,494.000000) scale(0.100000,-0.100000)"
fill="#000000" stroke="none">
<path d="M2925 4283 c-158 -34 -238 -46 -280 -43 -27 2 -115 4 -195 4 -149 0
-157 -2 -287 -55 -28 -11 -42 -11 -95 4 -296 82 -551 69 -723 -36 -52 -31
-135 -131 -168 -199 -89 -188 -88 -397 3 -774 119 -490 269 -814 418 -901 36
-21 52 -25 101 -21 47 3 66 10 100 37 22 18 41 28 41 23 0 -19 83 -53 177 -72
120 -25 165 -25 238 0 32 11 59 19 60 18 2 -2 7 -93 13 -203 11 -199 28 -302
60 -355 53 -87 175 -150 290 -150 64 0 206 36 267 68 66 34 122 89 150 148 29
60 64 246 85 444 l13 115 96 0 c249 0 431 114 448 280 5 48 3 56 -22 80 -24
25 -31 27 -78 21 -102 -13 -257 -19 -257 -10 1 5 14 32 30 59 43 73 139 271
165 340 136 362 184 644 138 809 -15 53 -27 70 -102 146 -124 123 -246 181
-465 220 -59 10 -182 12 -221 3z m191 -83 c110 -11 174 -29 273 -78 92 -46
101 -52 169 -122 56 -58 68 -77 84 -131 38 -138 14 -335 -74 -614 -10 -33 -22
-69 -27 -80 -5 -11 -19 -47 -31 -80 -28 -73 -118 -253 -178 -354 -30 -51 -40
-77 -33 -84 18 -18 123 -20 212 -3 109 20 115 20 139 -4 34 -34 26 -68 -29
-121 -93 -89 -218 -131 -381 -127 l-95 2 -3 -29 c-1 -17 -11 -95 -23 -175 -48
-340 -62 -392 -130 -459 -38 -38 -71 -56 -163 -87 -194 -67 -348 6 -405 190
-20 68 -24 103 -29 306 l-5 229 -31 -22 c-68 -49 -106 -59 -216 -59 -154 0
-235 41 -228 113 4 42 44 70 124 88 89 20 111 30 145 69 l32 36 -49 12 c-27 6
-61 16 -75 22 -28 11 -17 22 -198 -185 -82 -94 -126 -123 -183 -123 -91 0
-174 78 -252 236 -51 104 -52 106 -84 194 -11 30 -27 73 -35 96 -17 45 -85
297 -98 359 -29 148 -59 337 -59 375 0 63 27 225 47 285 67 195 237 295 504
295 110 0 276 -29 391 -68 41 -14 50 -14 65 -1 81 65 264 94 418 66 68 -12 86
-12 119 -1 42 15 77 21 196 33 41 5 78 9 81 10 3 0 55 -4 115 -9z"/>
<path d="M2900 4123 c-78 -5 -93 -15 -48 -34 48 -20 155 -97 207 -150 79 -80
125 -146 183 -261 39 -78 41 -88 40 -163 0 -44 -1 -206 -2 -359 -1 -272 -1
-281 -25 -340 -74 -184 69 60 174 296 12 26 21 52 21 58 0 5 8 29 19 52 22 51
50 134 56 171 3 14 10 38 15 52 14 38 40 220 40 285 0 102 -22 150 -99 222
-79 73 -140 109 -243 142 -77 25 -213 36 -338 29z"/>
<path d="M2360 4085 c-178 -41 -282 -146 -358 -365 -20 -58 -48 -207 -40 -215
2 -2 38 9 79 25 58 23 90 29 150 30 68 0 80 -3 122 -31 57 -38 80 -83 101
-204 32 -177 14 -344 -49 -480 -20 -43 -65 -155 -65 -162 0 -2 10 -3 23 -3 43
0 101 -43 124 -90 21 -43 22 -62 26 -360 4 -276 7 -321 23 -365 52 -139 142
-181 299 -140 144 37 191 101 219 295 42 290 56 406 56 458 0 31 5 74 11 96
11 38 62 96 86 96 16 0 6 27 -25 65 -13 16 -39 59 -57 95 -18 36 -58 114 -89
173 -98 188 -133 328 -106 426 11 43 56 98 96 119 26 14 167 32 194 25 27 -7
26 -3 -14 77 -100 199 -263 349 -443 409 -124 41 -258 50 -363 26z"/>
<path d="M1590 4080 c-185 -35 -291 -164 -321 -393 -13 -98 -3 -227 30 -372
11 -44 26 -114 36 -155 47 -205 119 -418 194 -568 46 -93 129 -182 170 -182
33 0 96 47 131 98 13 18 41 52 64 76 23 24 55 59 72 77 l31 35 -41 46 c-23 26
-51 73 -64 105 -22 57 -22 65 -18 378 3 273 6 333 23 410 37 163 83 268 154
349 l39 44 -28 9 c-116 42 -362 64 -472 43z"/>
<path d="M3025 3478 c-11 -6 -30 -23 -42 -37 -33 -38 -31 -127 4 -223 25 -69
165 -353 183 -371 4 -5 16 15 25 44 18 53 17 92 -3 284 -4 33 -3 96 2 140 5
44 9 100 10 125 l1 45 -80 2 c-47 2 -88 -2 -100 -9z m113 -40 c4 -23 -37 -58
-69 -58 -48 0 -73 62 -31 73 38 11 97 2 100 -15z"/>
<path d="M2085 3461 c-62 -22 -112 -48 -120 -61 -4 -6 -9 -115 -11 -243 -4
-200 -2 -238 13 -279 15 -42 68 -109 115 -145 14 -10 111 -43 128 -43 4 0 17
28 30 63 12 34 35 90 51 125 59 128 72 263 45 432 -17 104 -29 132 -66 153
-37 22 -121 21 -185 -2z m201 -41 c12 0 1 -39 -13 -52 -33 -28 -55 -29 -90 -6
-69 47 -16 104 66 71 18 -7 35 -13 37 -13z"/>
<path d="M3205 2600 c-29 -11 -44 -32 -51 -68 -6 -28 -3 -33 22 -43 73 -28
319 22 362 74 10 12 -8 13 -119 11 -118 -3 -135 -1 -159 16 -16 11 -30 20 -32
19 -1 0 -12 -4 -23 -9z"/>
<path d="M2256 2535 c-54 -61 -123 -105 -165 -105 -9 0 -34 -5 -56 -12 l-40
-11 30 -13 c95 -41 229 -21 301 45 49 44 67 75 59 101 -6 19 -50 60 -65 60 -3
0 -32 -29 -64 -65z"/>
<path d="M3075 1196 c-95 -23 -124 -56 -126 -144 -2 -72 19 -105 86 -130 31
-12 66 -22 78 -22 11 0 57 -9 101 -21 126 -33 166 -94 116 -176 -29 -48 -54
-57 -157 -57 -88 0 -95 2 -130 31 -25 20 -42 45 -52 76 -12 38 -19 47 -38 47
-19 0 -23 -5 -23 -30 0 -44 34 -105 72 -128 45 -27 156 -46 222 -38 116 15
176 71 176 167 0 88 -61 135 -205 159 -149 24 -195 53 -195 122 0 54 15 76 63
99 51 23 120 24 178 4 56 -20 76 -39 83 -81 6 -28 11 -34 31 -34 21 0 25 5 25
28 0 15 -11 44 -25 64 -21 31 -37 41 -91 58 -74 23 -116 24 -189 6z"/>
<path d="M3613 1188 c-71 -24 -130 -73 -164 -138 -21 -39 -24 -59 -24 -145 0
-92 2 -104 30 -154 41 -75 92 -115 170 -135 35 -9 80 -16 100 -16 40 0 121 17
146 30 11 6 28 -2 59 -26 49 -39 53 -40 70 -19 13 15 7 22 -59 71 -12 10 -11
16 11 45 52 69 61 98 61 199 1 75 -4 105 -21 142 -32 73 -90 124 -168 148 -83
25 -132 25 -211 -2z m224 -47 c76 -38 133 -138 133 -230 0 -50 -23 -134 -44
-166 -27 -40 -34 -47 -81 -75 -33 -21 -52 -24 -125 -24 -79 0 -88 2 -135 33
-28 18 -63 53 -79 79 -27 43 -29 55 -29 142 -1 101 8 129 59 189 66 78 204
102 301 52z"/>
<path d="M4060 905 l0 -285 210 0 c206 0 210 0 210 21 0 20 -4 21 -147 19 -82
-1 -163 -1 -180 -1 l-33 1 0 265 0 265 -30 0 -30 0 0 -285z"/>
<path d="M690 879 c0 -224 1 -240 18 -237 15 3 17 17 20 105 l3 101 122 3
c103 3 126 7 148 24 69 52 63 192 -10 229 -23 12 -62 16 -166 16 l-135 0 0
-241z m252 201 c47 -13 58 -34 58 -103 0 -82 -15 -91 -156 -96 l-114 -3 0 106
0 106 88 0 c48 0 104 -5 124 -10z"/>
<path d="M1828 1008 c-3 -48 -5 -53 -25 -50 -15 2 -23 -2 -23 -12 0 -8 11 -16
26 -18 l27 -3 3 -134 c2 -73 5 -136 8 -138 3 -3 25 -8 51 -10 36 -5 45 -3 45
10 0 10 -11 17 -32 19 l-33 3 -3 128 -3 127 37 0 c24 0 34 4 31 13 -2 6 -17
12 -33 12 -28 0 -29 2 -32 53 -3 43 -6 52 -22 52 -16 0 -19 -9 -22 -52z"/>
<path d="M1140 944 c-73 -45 -92 -165 -41 -245 23 -37 37 -48 75 -59 83 -23
164 0 203 59 18 26 23 48 23 93 0 120 -48 168 -166 168 -45 0 -78 -6 -94 -16z
m183 -34 c36 -29 54 -110 35 -165 -36 -108 -187 -115 -237 -11 -30 61 -22 117
24 163 30 30 39 33 93 33 44 0 66 -5 85 -20z"/>
<path d="M1488 942 c-24 -14 -28 -23 -28 -63 0 -62 18 -76 116 -89 104 -14
124 -24 124 -66 0 -45 -30 -64 -98 -64 -63 0 -109 21 -114 52 -4 33 -38 37
-38 5 0 -69 120 -109 221 -76 57 20 70 37 67 88 -3 42 -6 48 -40 64 -21 10
-63 21 -95 24 -75 7 -113 26 -113 57 0 40 33 59 100 59 64 0 100 -19 100 -55
0 -13 7 -18 26 -18 22 0 24 3 19 23 -4 12 -20 34 -36 50 -27 25 -36 27 -107
27 -55 0 -85 -5 -104 -18z"/>
<path d="M2015 940 c-41 -27 -65 -75 -65 -133 0 -103 55 -157 160 -157 52 0
69 4 97 26 l33 25 0 -46 c0 -87 -29 -114 -122 -115 -55 0 -72 4 -88 20 -11 11
-20 27 -20 35 0 8 -9 15 -20 15 -39 0 -18 -60 30 -85 39 -20 152 -20 196 1 56
27 64 60 64 261 0 161 -1 174 -17 171 -11 -2 -19 -14 -21 -29 l-3 -26 -29 28
c-26 26 -35 29 -97 29 -51 0 -76 -5 -98 -20z m189 -33 c49 -42 48 -156 -2
-202 -23 -21 -37 -25 -88 -25 -58 0 -64 2 -93 35 -26 30 -31 44 -31 88 0 44 5
59 31 90 29 36 33 37 93 37 52 0 68 -4 90 -23z"/>
<path d="M2418 943 c-9 -10 -18 -25 -21 -33 -3 -8 -6 -3 -6 13 -1 20 -6 27
-21 27 -19 0 -20 -7 -20 -156 0 -143 1 -155 18 -152 15 3 18 19 22 122 5 117
5 118 35 142 18 14 43 24 63 24 22 0 32 5 32 15 0 22 -82 20 -102 -2z"/>
<path d="M2599 937 c-48 -32 -72 -88 -67 -155 10 -113 106 -175 223 -142 66
19 128 100 76 100 -11 0 -23 -11 -30 -28 -20 -48 -112 -68 -171 -37 -37 19
-60 52 -60 87 l0 28 146 0 146 0 -7 43 c-15 90 -63 127 -164 127 -44 0 -66 -6
-92 -23z m179 -31 c22 -19 52 -67 52 -81 0 -3 -58 -5 -130 -5 -123 0 -130 1
-130 20 0 28 57 88 88 93 45 7 96 -4 120 -27z"/>
</g>
</svg>
