<?xml version="1.0" standalone="no"?>
<!DOCTYPE svg PUBLIC "-//W3C//DTD SVG 20010904//EN"
 "http://www.w3.org/TR/2001/REC-SVG-20010904/DTD/svg10.dtd">
<svg version="1.0" xmlns="http://www.w3.org/2000/svg"
 width="360.000000pt" height="360.000000pt" viewBox="0 0 360.000000 360.000000"
 preserveAspectRatio="xMidYMid meet">

<g transform="translate(0.000000,360.000000) scale(0.100000,-0.100000)"
fill="#000000" stroke="none">
<path d="M1709 3208 c-252 -18 -477 -124 -540 -255 -21 -43 -23 -63 -25 -220
l-2 -173 336 -2 336 -3 0 -40 1 -40 -565 -5 c-559 -5 -565 -5 -600 -27 -44
-27 -90 -76 -123 -130 -29 -45 -79 -163 -70 -163 3 0 1 -6 -4 -12 -36 -45 -59
-343 -39 -503 27 -221 130 -420 247 -479 51 -25 59 -26 230 -26 l177 0 4 218
c4 250 7 260 104 362 30 31 51 60 46 65 -4 5 -2 5 4 2 7 -4 31 4 55 17 24 14
64 29 89 35 25 5 221 12 436 15 258 4 402 10 425 17 61 21 154 94 142 112 -3
6 -1 7 5 3 15 -9 65 69 89 138 16 45 18 92 18 426 l0 375 -27 46 c-102 174
-400 272 -749 247z m-183 -261 c31 -28 37 -41 41 -83 5 -60 -18 -103 -70 -127
-45 -22 -74 -21 -116 1 -120 64 -75 242 60 242 42 0 55 -5 85 -33z"/>
</g>
</svg>
